<svg width="1105" height="617" viewBox="0 0 1105 617" fill="none" xmlns="http://www.w3.org/2000/svg">
<g clip-path="url(#clip0_138_8702)" filter="url(#filter0_d_138_8702)">
<path d="M978.149 187.675C977.144 191.142 980.276 193.223 981.137 196.069C981.376 196.906 982.309 197.719 982.62 198.7C982.859 199.441 983.122 199.8 984.03 199.465C985.704 198.867 986.851 199.585 987.234 201.211C987.617 202.789 986.923 203.578 985.178 203.818C983.385 204.057 983.695 205.563 983.958 206.711C984.724 210.059 985.369 213.479 986.541 216.708C987.449 219.243 986.995 221.873 987.784 224.361C988.023 225.126 987.593 225.867 986.851 226.226C986.015 226.633 985.441 226.106 984.939 225.485C984.532 224.982 984.102 224.456 983.624 224.002C982.954 223.356 982.524 223.261 981.998 224.337C981.544 225.293 981.902 227.541 980.253 226.92C978.579 226.298 976.355 225.413 975.949 223.237C975.566 221.06 974.084 219.697 972.602 217.258C972.458 218.741 972.434 219.434 972.339 220.08C972.147 221.347 971.478 221.897 970.163 221.467C969.35 221.204 968.633 219.96 967.677 220.989C966.481 222.256 964.76 223.141 964.425 225.078C963.971 227.661 962.823 229.957 961.197 231.99C959.332 234.333 959.069 237.944 960.886 240.384C962.417 242.441 963.325 244.545 962.847 247.152C962.703 247.917 962.775 249.017 963.229 249.591C965.142 251.959 964.879 254.542 964.497 257.292C963.923 261.477 965.214 265.423 966.601 269.321C967.342 271.426 968.585 272.191 970.713 271.067C970.785 271.019 970.88 270.995 970.976 270.971C972.721 270.397 974.514 268.412 976.26 270.756C977.814 272.837 976.403 274.415 974.921 275.802C974.395 276.281 974.586 276.711 974.61 277.285C974.682 279.844 972.96 281.47 970.402 281.422C968.011 281.374 967.987 283.24 968.418 284.507C969.374 287.329 967.892 288.884 965.788 289.936C964.401 290.63 964.042 291.467 963.612 292.806C962.943 294.958 962.345 297.517 959.284 297.709C958.256 297.78 957.061 297.828 956.559 296.656C956.081 295.532 956.415 294.504 957.3 293.595C958.232 292.615 959.763 292.208 960.384 290.821C956.32 290.271 953.379 292.973 949.841 293.691C948.98 293.858 948.98 294.6 948.717 295.15C948.215 296.178 947.617 297.23 946.541 297.685C943.409 299.024 942.094 301.32 942.524 304.692C943.433 304.787 944.748 303.687 945.417 305.17C946.063 306.605 945.035 307.49 943.983 308.159C941.735 309.57 939.392 310.886 937.097 312.249C936.786 312.44 936.189 312.608 936.189 312.775C936.189 317.343 931.502 316.147 929.327 318.06C928.323 318.945 926.864 318.945 928.155 320.691C928.562 321.241 928.442 321.958 927.868 322.485C927.318 323.011 926.673 322.939 926.003 322.748C922.154 321.695 921.795 321.839 920.05 325.067C919.452 326.168 918.353 326.789 917.396 327.555C914.025 330.305 909.817 332.17 908 336.523C906.326 340.517 905.49 344.534 907.235 348.696C907.522 349.413 907.928 350.083 907.283 350.776C903.912 354.34 905.083 358.597 906.039 362.447C907.091 366.728 905.609 370.243 904.39 374.07C903.338 377.418 902.716 380.933 902.214 384.425C901.329 390.404 900.206 396.406 901.473 402.505C901.473 402.6 901.521 402.72 901.473 402.792C899.632 405.47 900.684 409.177 898.317 411.664C897.934 412.071 897.743 412.334 897.958 412.812C899.393 415.945 897.648 418.6 896.691 421.374C896.404 422.163 896.046 422.928 895.83 423.741C895.4 425.224 894.515 426.874 895.687 428.214C896.428 429.051 901.258 427.496 902.095 426.348C903.123 424.913 903.935 423.287 905.609 422.378C907.139 421.541 908.311 421.661 908.287 423.646C908.263 426.348 909.172 428.309 911.754 429.505C913.284 430.223 912.662 431.992 913.117 433.355C914.814 432.447 914.527 430.796 914.886 429.409C915.101 429.218 915.244 429.027 914.934 428.812C914.934 428.812 914.718 429.027 914.623 429.146C912.806 429.266 912.112 428.548 912.782 426.779C913.045 426.085 913.212 425.296 913.619 424.722C914.073 424.076 913.738 422.617 914.814 422.857C916.009 423.12 916.273 424.435 916.249 425.607C916.249 426.396 915.221 427.329 916.153 427.879C917.133 428.477 918.137 427.879 918.902 427.042C919.357 426.54 919.954 426.085 920.6 426.659C921.102 427.09 920.696 427.664 920.648 428.19C920.457 430.175 918.902 431.873 919.405 434.551C921.867 431.562 924.927 429.768 924.282 425.296C924.019 423.55 923.899 422.187 922.919 420.656C922.178 419.509 922.082 417.404 923.804 417.093C928.442 416.28 930.474 411.808 934.539 410.229C936.165 409.608 937.121 408.531 937.049 411.377C937.001 413.051 941.52 415.993 944.078 416.16C945.776 416.28 947.497 416.089 949.219 416.208C953.762 416.543 955.459 419.509 953.092 423.383C954.814 423.526 956.726 423.168 957.754 424.77C958.711 426.253 958.113 427.855 957.826 429.457C959.237 430.27 961.867 428.644 962.44 431.466C931.263 441.702 899.321 447.154 866.423 446.365C853.177 446.054 839.955 446.102 826.71 445.887C819.752 445.767 812.819 446.102 805.885 446.915C784.654 449.45 763.83 453.946 743.196 459.303C712.904 467.171 682.635 475.207 651.315 478.292C631.327 480.253 611.315 482.262 591.16 480.947C579.564 480.181 568.112 478.149 556.564 476.929C535.524 474.705 514.604 471.835 494.018 466.908C452.489 456.984 412.752 442.132 373.948 424.698C328.952 404.466 283.19 386.219 236.018 371.463C202.498 360.988 168.715 351.613 133.784 346.759C110.066 343.458 86.3009 341.234 62.3203 343.482C62.6789 343.052 63.0615 342.239 63.3962 342.262C67.6042 342.597 68.4649 339.13 70.2341 336.666C70.545 336.236 71.047 335.734 71.5252 335.638C73.2227 335.303 74.5377 334.992 74.7768 332.744C74.9203 331.477 76.5461 332.003 77.6937 332.266C78.937 332.553 80.1802 333.773 81.6148 332.314C82.5472 331.357 83.1449 330.807 82.4037 329.3C81.6865 327.842 81.3757 326.072 81.3757 324.422C81.3757 320.787 79.2 317.678 78.9848 314.114C78.9609 313.516 78.5305 313.421 78.0284 313.301C75.4463 312.608 75.3745 310.694 75.7093 308.614C75.8288 307.777 75.8527 306.868 76.2114 306.151C78.4827 301.726 75.7332 299.024 72.8641 296.321C72.1468 295.652 71.7643 294.815 71.5491 293.882C71.1188 292.017 70.7601 290.367 68.6562 289.243C66.6717 288.19 67.4607 283.527 69.6125 282.522C70.3298 282.188 70.9753 282.02 71.2622 281.207C71.6209 280.298 71.7404 278.911 73.151 279.15C74.6334 279.389 74.9681 280.8 74.8964 281.996C74.7529 284.077 75.7571 284.603 77.6698 284.436C77.5742 283.168 77.1916 282.164 76.4743 281.255C75.9484 280.585 75.255 279.892 75.1115 279.15C74.5377 275.778 73.4857 272.645 71.8121 269.584C70.7601 267.623 73.6292 264.969 76.6178 265.112C78.7218 265.208 79.6064 265.016 78.6261 262.745C78.0284 261.357 78.8413 260.449 80.1324 259.875C81.1605 259.42 82.2842 259.085 82.9536 258.081C83.4079 257.388 84.0056 256.742 82.9536 255.929C80.2519 253.848 78.8652 250.883 77.6459 247.845C77.1199 246.53 76.6178 245.645 74.7529 246.219C72.8163 246.817 70.9514 246.267 70.0907 244.091C69.23 241.914 69.9472 238.901 71.9317 238.184C75.0637 237.012 77.4068 235.505 78.1241 231.966C78.411 230.579 79.9411 229.431 81.6387 229.646C83.3601 229.885 82.8341 231.487 83.0493 232.611C83.6709 236.079 87.0421 238.208 90.461 237.347C91.9195 236.964 93.8083 232.779 92.7563 231.846C90.8197 230.1 91.6565 228.641 93.0193 227.302C95.0515 225.317 96.2231 223.452 94.7646 220.415C93.7844 218.358 96.0796 217.377 97.7054 216.684C99.8811 215.751 101.961 215.177 100.574 211.901C99.905 210.299 102.129 209.677 103.228 209.988C106.886 211.064 108.99 208.051 111.477 206.759C113.055 205.922 113.39 202.741 114.226 200.565C114.466 199.943 113.868 199.824 113.39 199.8C111.644 199.68 110.616 198.245 109.229 197.48C107.628 196.619 106.982 195.447 108.56 193.917C108.823 193.677 109.158 193.08 109.086 193.032C106.743 190.903 108.751 188.201 108.106 185.881C107.699 184.47 107.723 183.155 109.229 182.533C111.094 181.792 111.955 180.309 112.744 178.683C113.461 177.2 114.466 176.004 116.115 175.478C135.505 177.63 154.848 180.213 174.142 183.155C187.531 185.188 200.394 189.468 213.735 191.74C224.542 193.582 235.062 196.547 245.414 200.135C252.587 202.622 259.712 205.3 267.028 207.429C300.333 217.114 332.705 229.072 364.098 243.804C392.86 257.292 422.77 267.958 453.852 275.18C452.56 276.496 451.891 278.122 451.628 279.916C451.365 281.638 450.241 283.025 448.687 282.785C446.129 282.427 444.336 283.981 442.519 284.89C440.941 285.679 439.697 287.664 438.383 289.147C436.422 291.371 435.585 294.384 434.533 297.182C434.366 297.661 434.294 298.378 435.011 298.593C435.824 298.856 436.613 298.641 436.852 297.756C437.737 294.647 440.152 294.695 442.734 294.719C446.033 294.743 448.998 294.026 449.907 290.199C450.217 288.932 451.174 288.214 452.489 287.832C453.469 287.545 454.354 286.923 455.262 286.492C459.398 284.507 459.948 280.657 460.666 276.878C465.997 277.883 471.329 278.863 476.661 279.868C476.565 280.131 476.565 280.442 476.374 280.633C475.68 281.351 474.461 281.996 475.226 283.144C475.776 283.933 476.971 283.599 477.88 283.551C479.338 283.455 478.932 282.283 479.028 281.446C479.075 281.087 479.123 280.705 479.171 280.346C505.758 284.603 532.44 286.66 559.409 285.56C583.294 284.579 607.155 283.527 630.968 281.231C659.778 278.457 688.636 276.113 717.279 271.832C751.827 266.667 786.4 261.764 820.804 255.833C841.438 252.27 862.167 249.472 882.609 244.76C912.256 237.921 938.579 224.982 961.197 204.894C967.222 199.561 972.387 193.414 977.981 187.675H978.149ZM926.84 426.587C926.553 428.381 926.936 429.72 928.155 430.773C928.251 430.844 928.777 430.629 928.825 430.462C929.255 428.955 927.892 428.19 927.318 427.09C927.271 427.018 927.199 426.97 926.84 426.564V426.587Z" fill="#04457A"/>
<path d="M62.391 343.482C86.3716 341.258 110.113 343.482 133.855 346.758C168.785 351.613 202.569 360.988 236.089 371.463C283.261 386.218 329.022 404.49 374.019 424.698C412.799 442.132 452.559 456.96 494.089 466.908C514.675 471.835 535.595 474.705 556.635 476.929C568.183 478.148 579.635 480.205 591.231 480.946C611.386 482.262 631.398 480.253 651.385 478.292C682.682 475.207 712.951 467.147 743.267 459.303C763.9 453.946 784.725 449.45 805.956 446.915C812.866 446.102 819.799 445.767 826.781 445.887C840.026 446.102 853.248 446.054 866.493 446.365C899.392 447.13 931.358 441.678 962.511 431.466C963.133 432.518 963.778 433.523 964.352 434.599C964.639 435.149 965.213 435.699 964.711 436.393C962.941 438.856 965.022 441.271 964.806 443.471C964.424 447.202 968.369 448.757 968.154 452.44C968.01 454.783 970.855 456.72 972.816 458.49C974.346 459.853 976.211 461.025 975.9 463.512C975.828 463.991 976.235 464.302 976.617 464.636C979.558 467.028 980.108 470.28 979.582 473.7C979.391 474.92 979.678 475.422 980.73 475.805C984.316 477.072 985.655 480.014 985.464 483.338C985.177 487.882 985.416 492.521 984.196 496.994C984.125 497.257 983.886 497.591 983.981 497.783C986.755 503.403 983.168 510.171 987.257 515.576C987.687 516.126 987.807 516.963 987.878 517.704C988.811 527.175 989.432 536.645 985.559 545.733C985.416 546.068 985.105 546.522 985.225 546.785C986.444 549.798 985.057 552.812 985.272 555.681C985.488 558.575 984.077 561.158 984.794 564.171C985.511 567.28 986.516 570.557 985.583 573.905C985.344 574.766 985.583 575.746 985.105 576.631C981.423 583.519 977.669 590.358 974.179 597.342C972.72 600.283 970.234 600.618 967.556 600.546C965.834 600.498 964.137 600.546 962.583 601.168C960.096 602.196 959.044 601.24 958.71 598.896C958.614 598.227 958.973 597.174 957.825 597.198C956.964 597.198 956.558 597.963 956.486 598.777C956.367 600.283 956.032 601.216 954.047 600.905C952.876 600.714 952.493 601.981 952.493 603.105C952.493 604.875 952.422 606.669 952.445 608.438C952.445 609.825 952.039 611.141 951.035 611.978C949.744 613.054 948.572 613.915 949.624 615.804C949.911 616.306 949.218 617.191 948.787 616.976C947.018 616.067 944.532 616.235 943.551 614.202C942.667 612.408 944.03 611.141 945.416 610.28C947.712 608.845 948.405 607.027 947.377 604.564C944.316 597.174 940.73 590.095 934.657 584.595C932.721 582.849 932.673 581.629 934.753 580.194C937.311 578.449 936.188 575.555 936.929 573.235C937.192 572.374 937.096 571.37 937.622 570.557C938.1 569.839 939.057 569.337 939.439 570.198C940.443 572.446 943.504 572.805 944.006 575.627C944.316 577.325 946.564 577.875 948.19 578.927C948.859 576.607 947.616 574.574 947.759 572.494C947.831 571.465 947.449 570.222 948.357 569.576C950.27 568.237 950.198 566.802 949.074 565.08C948.931 564.865 948.835 564.506 948.907 564.267C949.983 560.608 948.381 556.71 949.863 553.122C950.294 552.118 949.935 551.329 949.6 550.444C947.568 545.159 946.54 539.634 945.297 534.134C944.699 531.431 944.173 529.255 945.416 526.72C945.871 525.787 945.225 524.233 944.556 523.946C942.069 522.87 942.021 520.694 941.471 518.661C941.256 517.872 941.161 516.771 940.3 516.556C939.367 516.341 939.104 517.561 938.435 518.015C935.422 520.167 933.773 523.635 930.665 525.692C929.78 526.266 929.11 526.959 928.847 528.083C927.7 532.89 925.285 536.573 921.101 539.778C918.519 541.763 915.172 541.763 912.996 544.13C912.47 544.704 911.346 544.609 910.653 543.891C909.529 542.695 908.071 542.002 906.732 541.117C906.278 540.83 905.608 540.208 905.68 539.921C906.851 535.975 901.902 535.473 901.233 532.364C901.018 531.384 898.029 530.905 896.14 530.857C893.032 530.762 889.828 531.384 887.103 529.231C886.529 528.777 885.788 528.944 885.214 529.303C883.588 530.355 881.867 530.379 880.049 529.853C878.185 529.303 876.75 529.59 875.053 530.929C872.709 532.771 869.577 532.053 866.756 531.838C865.943 531.766 865.704 530.905 865.465 530.14C864.963 528.538 864.341 526.959 863.768 525.381C863.385 524.281 862.979 523.276 861.425 523.539C860.755 523.659 859.894 523.444 859.751 522.75C859.321 520.67 857.336 519.976 856.189 518.565C854.515 516.508 852.937 514.452 850.092 513.902C849.757 513.83 849.398 513.495 849.231 513.208C847.175 509.023 843.373 506.201 840.456 502.709C838.185 500.007 836.057 496.754 831.754 496.204C830.224 496.013 828.885 494.243 827.163 493.622C825.633 493.048 824.246 492.808 823.003 494.195C822.357 494.913 821.473 495.367 820.445 495.152C817.982 494.602 815.496 495.08 813.033 494.865C809.566 494.554 806.673 495.726 803.613 497.257C799.285 499.385 794.791 501.131 790.726 503.809C786.757 506.44 786.351 510.769 784.916 514.619C784.486 515.767 784.916 516.221 786.375 515.934C789.602 515.289 790.511 516.317 791.276 519.617C792.758 525.835 790.798 531.599 789.196 537.386C788.359 540.4 787.785 543.198 788.192 546.426C788.933 552.333 788.168 558.049 783.434 562.497C781.426 564.387 781.21 567.209 779.991 569.504C779.322 570.748 778.772 571.178 777.313 571.37C771.671 572.111 766.578 570.198 761.462 568.404C759.023 567.543 757.421 567.83 756.465 570.27C755.652 572.35 754.337 572.924 752.209 571.92C750.918 571.298 749.436 571.298 748.001 571.298C746.901 571.298 745.993 570.987 745.18 570.174C742.191 567.161 735.951 568.237 733.967 572.063C733.584 572.805 733.034 573.618 733.034 574.383C732.938 580.194 728.228 581.151 724.092 582.371C720.721 583.375 718.043 585.815 714.505 586.365C713.453 586.532 713.238 587.584 712.855 588.469C711.229 592.248 709.053 593.42 705.037 592.487C703.746 592.2 702.67 592.176 701.498 592.846C699.036 594.281 696.477 594.017 694.23 592.511C692.198 591.172 690.094 590.813 687.727 590.98C685.647 591.124 683.591 591.124 681.51 590.478C679 589.713 677.231 588.373 676.968 585.719C676.848 584.475 676.322 584.188 675.175 584.14C672.162 584.021 669.221 583.686 667.882 580.362C667.548 579.525 666.591 579.716 665.874 579.621C664.177 579.405 662.503 579.142 661.116 577.97C659.969 577.014 658.582 577.349 657.315 577.755C653.704 578.903 650.118 580.123 646.532 581.342C646.102 581.486 645.504 581.653 645.312 581.988C643.017 586.125 639.287 584.762 636.084 583.997C633.143 583.303 630.13 582.921 627.214 581.988C624.727 581.199 622.766 579.907 621.93 577.325C621.691 576.607 621.332 575.961 620.662 575.507C618.463 574.024 617.674 571.848 618.08 569.385C618.535 566.682 617.172 565.821 614.829 565.63C611.912 565.391 609.234 564.602 607.273 562.234C606.724 561.588 605.935 561.086 605.05 561.134C599.168 561.445 594.554 557.619 588.959 556.566C588.433 558.575 587.429 560.321 584.847 560.751C583.771 560.943 582.863 561.78 583.508 563.286C584.082 564.602 583.197 565.319 582.026 565.869C579.468 567.089 578.583 569.409 579.731 571.992C580.257 573.187 580.806 574.431 581.619 575.435C583.747 577.994 583.149 580.912 583.03 583.782C582.982 584.81 582.313 585.647 581.285 585.743C578.774 586.006 577.244 587.513 575.786 589.33C573.514 592.128 572.367 592.2 569.784 589.689C568.374 588.326 567.178 587.656 565.409 589.043C564.955 589.402 563.927 589.689 563.52 589.45C561.297 588.086 558.882 587.943 556.372 587.704C555.32 587.608 554.315 587.058 553.072 587.417C551.136 587.943 549.438 587.297 548.434 585.528C547.812 584.427 547.454 584.332 546.378 585.193C544.68 586.58 543.389 586.078 543.03 583.83C542.672 581.701 542.194 579.597 542.05 577.468C541.955 575.842 541.309 575.507 539.922 575.938C536.479 577.014 533.419 575.124 530.144 574.79C529.45 574.718 528.972 574.24 528.757 573.522C528.59 572.972 528.279 572.279 527.681 572.398C525.147 572.829 523.616 571.92 522.588 569.552C522.086 568.404 520.867 569.17 520.126 569.672C516.611 572.063 513.049 574.311 508.482 574.072C507.598 574.024 506.832 574.551 506.402 575.364C505.159 577.683 503.079 578.257 500.616 578.042C498.56 577.875 496.743 578.401 495.021 579.644C493.826 580.505 492.439 581.342 490.861 581.295C489.69 581.295 488.949 581.653 488.375 582.682C487.442 584.38 485.745 584.547 484.119 584.045C481.274 583.136 478.74 582.897 476.54 585.504C475.464 586.771 473.719 586.436 472.212 586.436C470.945 586.436 469.654 585.647 468.435 586.723C468.076 587.034 467.311 586.843 467.168 586.436C466.187 583.686 462.362 582.49 462.936 578.855C463.103 577.779 462.147 576.751 462.434 575.244C458.441 579.884 454.4 575.89 450.479 575.555C449.188 575.435 447.371 574.048 449.021 571.752C450.288 569.983 448.423 566.132 446.08 564.937C442.302 562.999 441.537 561.588 442.661 557.619C443.115 555.992 442.828 554.94 441.466 554.031C440.844 553.625 440.246 553.099 439.84 552.501C436.947 548.196 435.751 547.909 430.539 549.774C428.603 550.468 426.57 549.966 424.706 549.129C423.151 548.459 421.765 547.407 419.9 547.598C419.159 547.67 418.537 547.168 418.489 546.45C418.37 544.991 417.557 544.178 416.337 543.461C415.285 542.839 415.572 541.715 415.931 540.663C416.577 538.869 415.357 538.295 413.923 538.056C412.608 537.841 411.412 537.817 411.58 539.778C411.651 540.567 407.754 543.174 406.917 543.054C405.722 542.863 405.889 541.954 405.841 541.117C405.005 526.051 401.394 511.462 397.545 496.946C396.517 493.048 394.533 489.508 392.381 486.064C390.875 483.697 391.257 482.955 394.102 482.692C395.13 482.597 395.513 481.975 395.537 481.305C395.561 480.516 394.724 480.755 394.222 480.731C390.014 480.54 385.949 480.779 381.909 482.453C379.685 483.362 376.84 482.692 374.378 483.482C373.875 483.649 373.349 483.434 372.847 483.96C370.743 486.184 370.074 486.136 368.902 483.434C368.113 481.616 366.655 481.305 365.029 481.21C363.762 481.138 362.256 481.353 362.471 479.512C362.638 477.981 363.786 477.072 365.436 477C366.177 476.977 367.229 477.885 367.563 476.57C367.898 475.255 366.535 475.398 365.866 475.255C364.24 474.896 363.714 473.557 362.877 472.457C362.136 471.452 361.515 470.017 359.769 470.615C358.932 470.902 358.048 471.237 357.522 470.256C356.996 469.276 357.139 468.248 357.976 467.411C358.43 466.956 358.908 466.55 359.315 466.167C359.195 465.449 358.598 465.449 358.43 465.569C355.466 467.841 353.553 465.473 351.664 463.919C350.756 463.154 349.68 463.464 348.819 462.843C348.341 462.508 347.791 462.293 347.815 461.623C347.815 461.001 348.245 460.643 348.843 460.451C351.21 459.686 352.644 458.538 351.664 455.644C351.114 454.066 351.616 452.32 352.955 450.981C353.768 450.168 353.888 449.163 353.362 448.135C352.836 447.083 351.855 447.537 351.09 447.537C349.058 447.513 347.719 447.226 347.695 444.595C347.695 442.921 345.137 442.682 344.109 441.295C343.248 440.123 342.411 438.33 340.355 439.932C340.14 440.099 339.279 439.86 339.112 439.573C336.817 435.938 333.493 437.995 330.553 438.019C329.118 438.019 327.636 438.21 326.297 437.875C322.352 436.871 318.168 437.134 314.318 435.747C312.454 435.077 310.397 434.575 308.939 433.379C307.696 432.351 307.05 432.566 306.118 433.379C304.874 434.408 303.631 434.288 302.508 433.284C300.93 431.896 298.897 431.777 297.008 431.227C290.41 429.266 283.548 428.07 277.284 425.105C276.064 424.531 274.582 423.957 274.199 422.761C272.956 418.958 270.398 420.776 268.174 421.206C267.409 421.35 266.596 422.043 267.625 422.761C268.939 423.646 268.605 425.846 270.637 426.109C271.139 426.181 271.378 426.946 271.115 427.544C270.804 428.237 270.183 428.333 269.489 428.477C268.509 428.692 267.027 427.711 266.596 429.314C266.19 430.82 266.501 432.088 267.983 433.212C269.155 434.121 269.944 435.89 268.437 437.11C266.931 438.33 265.999 436.799 264.947 435.819C263.512 434.503 263.13 431.538 259.974 432.686C258.826 433.116 258.181 433.475 258.372 434.814C258.467 435.532 258.228 436.297 258.085 437.014C257.272 441.128 256.483 441.51 252.514 440.171C250.84 439.597 249.119 438.999 247.159 439.238C247.422 440.817 250.147 442.013 247.876 443.83C248.976 444.835 249.071 446.461 249.932 447.513C252.132 450.215 252.753 452.918 251.39 455.285C248.952 459.518 247.182 460.284 242.951 459.638C239.699 459.136 236.854 458.299 235.419 455.022C235.013 454.09 234.2 454.161 233.483 454.448C232.287 454.903 231.068 454.999 229.825 454.855C227.362 454.568 226.836 453.635 228.247 451.674C229.06 450.574 228.677 450.024 227.864 449.355C225.258 447.178 223.824 444.643 225.138 441.199C225.641 439.908 224.708 439.406 223.752 439.286C222.102 439.095 220.548 438.473 218.707 438.808C215.957 439.31 214.523 437.23 215.575 434.695C216.197 433.14 213.949 431.155 211.821 431.514C211.056 431.633 210.172 432.064 209.717 431.37C207.996 428.596 206.322 430.246 204.553 431.251C201.062 433.212 198.6 431.777 198.6 427.855C198.6 425.965 198.432 424.124 197.859 422.33C197.643 421.661 197.978 420.632 196.926 420.537C196.041 420.465 195.3 420.967 194.918 421.828C194.463 422.809 193.914 423.885 192.622 423.287C191.164 422.617 191.403 421.278 191.929 420.13C193.053 417.643 193.842 415.61 191.953 412.669C190.686 410.684 191.021 407.336 190.829 404.609C190.734 403.342 190.566 402.768 189.514 402.313C188.295 401.787 187.052 401.309 185.928 400.615C184.9 399.994 184.541 399.085 185.665 398.104C186.334 397.53 187.96 397.004 187.219 396.215C186.382 395.33 184.924 394.541 183.37 394.852C179.162 395.689 176.173 393.01 176.556 388.61C176.627 387.701 176.436 387.414 175.599 387.414C172.682 387.438 169.646 387.175 166.897 386.792C163.478 386.314 160.322 386.41 156.998 386.745C155.42 386.912 153.842 386.027 152.503 385.118C151.236 384.257 150.352 384.425 149.897 385.836C148.391 390.332 144.255 390.906 140.501 391.791C138.445 392.269 138.158 390.356 137.943 388.849C137.584 386.314 138.517 383.851 138.541 381.316C138.541 379.546 138.445 378.685 136.245 379.546C133.783 380.503 131.177 381.077 128.618 381.722C126.347 382.296 125.319 383.612 125.271 385.931C125.2 388.969 123.932 389.901 120.896 389.423C120.346 389.327 119.7 388.993 119.222 389.16C115.086 390.643 110.711 390.547 106.431 391.193C103.586 391.623 102.486 391.025 103.108 388.203C103.347 387.103 103.729 386.027 103.658 384.903C103.658 384.473 103.466 384.042 103.299 383.325C101.123 385.047 101.793 387.223 102.008 389.064C102.223 390.738 102.104 391.886 100.55 392.891C99.1389 393.776 98.8759 397.722 100.071 398.893C101.291 400.113 101.96 401.715 100.908 402.935C98.1108 406.164 99.1867 409.966 98.8042 413.554C98.6129 415.371 97.4892 416.089 95.696 416.089C94.6679 416.089 93.8311 414.391 92.9226 415.443C91.9901 416.519 90.9381 418.097 91.0816 419.341C91.4641 422.689 89.3123 423.335 86.9215 423.909C84.9609 424.363 84.3154 425.105 85.7978 426.85C87.5192 428.883 86.9215 430.079 84.3871 430.868C82.2114 431.562 80.8008 433.618 78.2665 434.001C76.9276 434.192 75.9473 434.79 74.704 433.81C73.939 433.212 72.8152 433.116 72.0023 433.666C71.1894 434.216 71.572 435.197 71.7154 436.01C72.1299 438.322 71.7473 441.502 70.5678 445.552C71.4524 446.413 73.676 444.954 73.6999 447.011C73.6999 448.613 71.9306 449.02 70.7591 449.163C66.6707 449.642 65.0688 453.54 61.8172 455.142C60.7652 455.644 61.7694 457.318 61.1238 457.988C58.0635 461.193 58.3265 465.617 56.5094 469.276C55.6726 470.974 55.0271 472.648 54.7402 474.537C54.1903 478.101 51.632 479.177 48.3087 477.503C47.7349 477.216 47.0893 476.905 46.4677 476.857C41.6142 476.642 39.3907 474.274 39.4863 469.563C39.5341 465.928 39.9406 462.293 39.1038 458.658C38.6017 456.529 37.8844 454.592 36.5933 452.774C35.6609 451.435 34.3698 449.833 37.4062 449.068C38.7212 448.733 38.7212 447.609 37.8605 446.628C35.5175 443.95 35.4218 441.032 36.4499 437.756C37.3345 434.981 36.3064 433.594 33.4613 432.829C29.9467 431.873 28.7512 430.127 28.7273 426.563C28.7273 424.531 28.2253 422.546 27.6036 420.513C26.6951 417.547 26.0017 414.534 24.7585 411.616C24.2803 410.492 23.9456 409.584 23.0131 408.699C19.3551 405.231 17.2272 400.998 16.0317 396.119C15.2667 393.01 14.0473 389.854 11.1304 387.821C10.1263 387.127 9.79153 386.242 9.74372 384.975C9.62417 381.077 9.67199 377.394 11.1543 373.543C12.2302 370.745 12.3498 367.158 10.0067 364.193C8.57218 362.375 8.16573 360.127 9.02645 357.807C9.48072 356.588 9.19381 355.416 8.64391 354.268C20.8374 349.293 33.6287 346.639 46.6829 345.013C47.7827 345.682 48.8586 346.4 50.1975 346.543C50.3648 346.806 50.58 346.902 50.8191 346.639C50.6757 346.543 50.5561 346.448 50.4127 346.352C50.0779 345.802 49.7671 345.276 49.4324 344.726C53.3534 344.295 57.2745 343.865 61.1955 343.434L62.2475 343.362L62.391 343.482Z" fill="#04457A"/>
<path d="M978.147 187.675C972.553 193.414 967.388 199.561 961.363 204.894C938.722 224.982 912.422 237.921 882.775 244.76C862.357 249.472 841.604 252.27 820.971 255.833C786.566 261.788 751.97 266.691 717.445 271.832C688.827 276.113 659.945 278.457 631.135 281.231C607.321 283.527 583.46 284.579 559.575 285.56C532.606 286.66 505.924 284.603 479.337 280.346C479.146 279.294 479.529 278.337 479.911 277.381C480.509 275.85 480.294 274.272 479.003 273.387C477.616 272.43 476.803 270.995 475.823 269.823C473.862 267.456 472.236 265.519 468.817 266.978C467.981 267.336 467.239 266.595 466.642 265.997C466.211 265.543 465.924 264.897 465.088 264.969C461.74 265.256 462.386 263.366 463.103 261.429C463.725 259.707 464.705 258.057 464.299 256.096C464.251 255.833 464.275 255.355 464.394 255.307C468.459 253.394 467.478 247.439 472.093 245.98C473.217 245.621 473.288 244.641 473.336 243.708C473.408 242.225 473.336 240.719 473.456 239.236C473.623 237.562 473.456 236.294 471.352 236.055C470.802 235.983 470.085 235.792 469.702 235.099C469.08 233.903 469.606 232.755 470.324 232.037C471.089 231.272 471.806 232.277 472.38 232.875C472.738 233.257 473.049 233.688 473.886 234.764C474.03 231.583 472.978 228.331 476.875 227.589C477.042 227.326 477.209 227.063 477.377 226.776C479.194 224.791 481.896 224.863 484.167 223.978C484.502 223.858 484.956 224.002 485.291 223.882C487.514 222.998 490.216 213.192 488.733 211.303C488.207 210.609 487.681 209.988 487.658 209.079C487.634 207.429 488.686 207.046 490.096 207.07C491.674 207.118 491.339 208.146 491.1 209.055C490.742 210.346 490.622 211.542 491.65 212.666C492.152 213.216 492.32 214.005 492.224 214.795C491.579 219.578 490.766 224.313 486.343 227.35C485.243 228.091 485.362 228.929 485.625 230.005C486.295 232.731 485.936 233.281 483.234 234.309C483.904 238.088 487.825 237.681 490.168 239.284C492.726 241.03 492.487 244.569 495.619 246.219C495.81 243.278 494.519 241.364 492.989 239.571C490.622 236.821 488.781 233.879 488.781 230.1C488.781 228.331 489.307 226.824 490.981 226.25C492.774 225.652 494.185 226.441 495.284 228.091C495.978 229.144 496.169 230.316 496.671 231.416C497.03 232.205 497.58 233.018 498.464 232.516C499.397 231.99 499.564 230.626 498.751 230.124C496.097 228.57 497.508 227.254 498.799 225.939C498.106 224.696 495.834 225.604 495.882 224.074C495.954 222.495 497.628 221.754 498.966 221.036C501.357 219.769 502.553 220.51 502.529 223.141C502.529 223.643 501.668 224.648 502.935 224.6C507.024 224.385 507.884 227.541 508.936 230.22C509.917 232.731 510.993 235.123 512.523 237.371C513.551 238.901 514.364 239.714 516.324 239.212C517.448 238.925 518.787 238.829 519.934 239.499C522.636 241.532 520.508 243.349 519.671 245.239C518.237 245.31 517.998 247.176 516.802 247.295C512.81 247.678 513.838 250.907 512.475 253.537C514.531 252.676 515.87 252.174 516.994 253.657C518.691 255.905 517.185 260.688 514.507 261.597C513.2 262.043 512.993 262.936 513.886 264.275C514.316 263.653 514.651 262.601 515.177 262.482C519.289 261.644 518.213 258.536 517.998 256.072C517.663 252.294 516.946 248.539 519.743 245.286C520.819 245.334 522.11 245.263 521.943 243.899C521.728 242.225 523.306 239.882 520.413 238.973C518.141 237.634 517.448 235.577 518.07 233.233C518.5 231.607 517.807 230.985 516.611 230.268C511.256 227.015 511.184 226.561 514.531 221.276C514.818 220.821 515.272 220.104 515.105 219.793C513.909 217.569 515.583 215.632 515.679 213.551C515.798 210.825 516.563 211.136 519.122 211.542C523.545 212.236 527.681 215.201 532.463 213.431C534.017 212.858 535.571 213.288 536.814 214.077C538.894 215.393 539.851 214.579 540.592 212.69C541.333 210.849 542.361 211.136 543.078 212.594C543.485 213.431 543.819 213.814 544.728 213.623C545.756 213.384 545.254 212.594 545.35 212.02C545.589 210.466 544.871 209.294 543.724 208.361C542.767 207.596 541.5 206.903 542.146 205.444C542.839 203.937 544.274 205.061 545.517 204.822C544.824 203.315 544.489 201.498 542.289 203.507C541.835 203.913 540.855 203.937 540.137 203.865C539.588 203.818 538.655 203.961 538.607 203.004C538.536 202.096 539.229 201.928 539.946 201.976C541.429 202.072 542.074 201.378 542.002 199.991C541.811 196.882 543.293 197.193 545.326 198.652C545.111 196.356 545.804 195.543 547.836 196.691C548.123 196.858 548.41 197.026 548.721 197.193C549.103 193.893 550.705 195.256 552.355 196.189C552.881 196.476 553.216 195.615 553.598 195.232C557.161 191.573 561.942 190.975 566.652 190.162C569.521 189.66 572.343 188.847 575.188 188.177C574.901 187.483 574.327 187.46 573.753 187.388C572.916 187.244 571.506 187.818 571.625 186.336C571.721 185.044 572.893 184.566 574.136 184.542C575.594 184.542 577.22 184.279 578.511 184.566C582.169 185.355 584.632 182.629 587.788 182.079C588.744 181.911 589.485 181.648 589.94 182.581C590.394 183.514 589.844 184.159 588.959 184.59C587.047 185.522 584.919 186.264 584.632 188.823C584.536 189.158 584.441 189.492 584.393 189.851C584.393 189.899 584.536 189.971 584.608 190.019C584.704 189.684 584.799 189.373 584.895 189.038C585.899 188.536 586.999 186.933 587.764 189.301C588.003 190.019 588.553 189.612 588.911 189.468C589.414 189.253 589.605 188.751 589.39 188.297C588.122 185.738 589.82 185.69 591.613 185.714C592.833 185.714 594.028 185.786 594.889 184.542C595.439 183.729 596.323 183.753 597.136 184.351C597.303 184.518 597.471 184.662 597.614 184.829L598.379 185.522C598.738 185.044 598.571 184.709 598.069 184.47C597.877 184.303 597.662 184.111 597.471 183.944C597.04 183.633 596.634 183.251 596.156 183.011C595.63 182.748 595.08 182.533 595.152 181.84C595.223 181.026 595.917 181.218 596.443 181.122C598.403 180.787 600.34 180.429 602.3 180.046C603.878 179.735 605.05 178.204 604.141 177.272C601.607 174.665 604.07 172.728 604.883 170.91C605.911 168.638 607.441 166.51 609.234 164.573C611.936 161.679 616.335 160.627 619.658 162.731C621.117 163.664 621.332 166.773 620.089 168.232C619.013 169.475 617.483 170.025 616.12 171.03C618.582 170.217 620.973 170.982 623.388 170.958C624.727 170.958 626.09 170.862 626.903 172.226C627.715 173.613 626.52 174.474 625.97 175.478C625.564 176.196 625.086 176.841 624.56 177.63C625.803 178.133 627.094 177.894 628.313 177.63C629.126 177.463 630.489 177.535 629.509 175.789C628.72 174.402 629.987 173.804 631.302 173.828C633.502 173.876 635.629 173.613 637.709 172.8C638.642 172.441 639.55 172.776 640.411 173.278C641.535 173.948 642.228 175.598 644.165 174.593C644.739 174.306 645.575 175.382 645.193 176.411C644.5 178.276 646.819 178.372 647.01 178.276C650.74 176.435 650.094 179.615 650.548 181.289C650.811 182.27 650.238 183.394 652.15 183.179C653.059 183.083 652.987 184.446 652.939 185.283C652.868 186.67 652.055 187.268 650.692 187.244C650.429 186.742 650.046 186.67 649.592 186.933C649.831 187.173 650.07 187.412 650.309 187.651C651.481 188.488 653.346 188.153 653.609 190.473C653.991 193.869 654.302 197.121 651.457 199.609C650.453 200.493 649.449 201.091 649.257 202.55C649.162 203.339 648.588 204.128 647.632 204.32C646.054 204.631 646.054 205.898 645.886 207.046C645.623 207.214 645.384 207.357 645.121 207.524C644.476 208.29 643.471 208.338 642.682 208.768C641.702 209.294 640.292 209.653 641.654 211.351C642.754 212.69 640.578 214.005 641.128 215.56C642.3 215.273 643.137 213.671 644.691 214.747C645.241 215.129 645.695 214.412 646.03 213.982C646.627 213.216 646.819 211.757 648.158 212.212C649.353 212.618 649.449 213.958 649.449 215.082C649.449 216.301 649.807 217.043 651.194 217.09C653.059 217.162 654.613 216.995 653.752 214.532C653.489 213.742 653.752 213.192 654.422 212.953C655.163 212.69 655.498 213.312 655.904 213.862C657.984 216.54 657.506 219.769 658.08 222.758C657.602 222.854 657.195 223.021 657.291 223.595C657.291 223.691 657.626 223.858 657.673 223.811C658.008 223.524 658.725 223.285 658.008 222.687C660.064 221.897 660.088 221.897 659.084 220.391C658.462 219.458 658.367 218.406 659.347 217.951C661.188 217.114 662.622 215.393 664.87 215.345C665.157 215.345 665.587 215.416 665.707 215.273C669.269 210.729 674.505 214.197 678.761 212.642C680.674 211.949 681.439 213.264 680.387 215.177C679.502 216.78 680.243 217.832 681.319 218.812C682.658 220.008 682.969 218.812 683.71 217.928C684.379 217.138 685.623 216.827 686.603 216.253C687.225 215.871 687.727 216.134 688.133 216.54C688.587 216.995 688.54 217.569 688.181 218.071C686.483 220.486 688.731 220.032 689.831 220.08C690.62 220.128 691.672 219.865 692.198 219.339C694.373 217.138 697.792 217.664 700.088 215.703C701.187 214.771 702.598 215.536 703.841 215.966C703.937 216.062 704.033 216.158 704.128 216.253C704.128 216.134 704.128 216.038 704.128 215.919C704.009 215.966 703.889 215.99 703.77 216.038C703.196 214.268 702.168 212.642 700.829 211.494C698.725 209.677 699.681 207.142 698.773 205.085C698.581 204.679 699.586 204.392 699.872 204.057C701.594 201.952 702.789 198.867 706.471 201.259C709.316 197.408 709.03 201.115 709.819 202.526C710.345 202.024 710.321 200.78 711.468 200.852C712.855 200.948 712.042 202.454 712.903 203.1C714.098 202.478 713.118 200.709 714.696 200.063C715.963 199.537 717.254 199.919 718.474 199.226C719.908 198.413 721.438 199.082 722.705 199.967C723.805 200.756 724.236 202.933 726.34 201.402C726.674 201.163 727.2 201.689 727.296 202.191C727.487 203.052 727.296 203.818 726.65 204.511C725.766 205.396 724.212 205.683 724.02 207.237C725.455 208.051 726.1 206.735 726.985 206.185C727.702 205.755 728.348 205.492 729.017 206.137C729.806 206.879 729.185 207.548 728.778 208.098C728.061 209.055 726.985 209.796 726.913 211.136C726.363 211.351 725.837 211.566 725.072 211.877C726.053 211.973 726.794 212.284 727.415 211.638C728.037 211.447 728.659 211.207 729.304 211.064C730.117 210.873 731.05 210.586 731.623 211.494C732.197 212.355 731.791 213.121 731.026 213.671C730.165 214.292 730.332 214.508 731.217 215.058C732.293 215.703 732.173 216.827 731.384 217.736C730.571 218.669 731.313 219.243 731.767 219.889C732.125 220.439 732.604 220.606 733.201 220.271C733.99 219.865 734.349 219.458 733.727 218.525C733.321 217.928 734.038 217.306 734.492 217.33C735.736 217.401 736.357 218.478 737.027 219.339C737.577 220.032 737.242 220.606 736.549 220.893C735.975 221.156 735.21 221.013 734.755 221.993C736.788 222.352 738.294 223.739 739.752 224.959C741.402 226.322 743.506 226.537 745.036 227.876C746.064 227.35 744.845 225.796 746.136 225.652C747.212 225.533 747.308 226.68 747.786 227.326C748.24 227.948 749.005 228.355 749.675 228.163C750.416 227.948 750.057 227.039 750.177 226.441C750.798 223.404 748.646 220.965 748.312 218.095C748.049 215.99 747.523 213.91 747.045 211.853C746.925 211.327 746.399 210.801 747.045 210.394C747.81 209.916 748.216 210.538 748.646 211.04C751.348 214.221 754.958 214.747 758.473 212.666C759.405 212.116 759.716 211.566 759.788 210.49C760.003 207.309 761.342 205.468 764.355 205.539C767.008 205.587 767.845 203.841 769.256 202.502C769.997 201.809 770.475 200.039 771.814 201.115C773.033 202.096 772.555 203.459 771.336 204.439C771.145 204.607 771.025 204.846 770.882 205.061C772.197 206.209 773.727 205.061 775.137 205.444C775.52 205.539 776.883 204.631 775.329 203.865C774.827 203.602 774.157 203.363 774.157 202.741C774.181 201.426 772.651 199.848 774.229 198.843C776.166 197.624 777.194 199.656 778.461 200.589C779.337 198.548 780.613 197.034 782.286 196.045C779.322 196.667 778.461 193.462 777.026 193.175C773.033 192.338 775.687 189.803 774.994 188.249C775.161 188.01 775.663 187.818 775.305 187.484C775.018 187.22 774.659 187.388 774.588 187.842C773.344 188.368 773.225 191.214 771.264 189.923C769.686 188.871 770.475 186.838 770.714 185.212C770.858 184.279 771.671 183.824 772.508 183.609C774.109 183.203 774.468 182.007 774.659 180.668C774.851 179.233 773.559 179.065 772.723 178.611C771.91 178.157 770.762 177.965 771.097 176.722C771.384 175.622 772.436 175.43 773.416 175.55C775.448 175.789 777.026 174.928 778.652 173.876C783.314 170.862 788.502 168.83 793.691 166.845C794.36 166.582 794.958 166.342 795.484 166.964C796.177 167.825 795.412 168.471 794.862 168.806C792.663 170.121 791.085 171.891 790.08 174.211C789.817 174.808 789.339 175.287 789.722 176.148C791.037 175.622 791.993 174.808 792.424 173.541C793.141 171.46 795.03 170.408 796.464 168.949C797.731 167.658 798.759 168.734 799.046 169.715C799.524 171.389 799.835 173.397 798.831 174.88C797.779 176.459 798.209 177.917 798.162 180.022C800.05 178.348 800.648 176.65 800.553 174.713C800.433 171.915 800.074 169.141 798.951 166.534C798.544 165.601 798.496 164.692 798.807 163.807C799.525 161.703 807.654 157.135 809.853 157.518C813.344 158.092 814.611 160.627 812.913 163.664C812.555 164.31 811.909 165.051 812.913 165.553C813.726 165.96 813.822 164.979 814.228 164.525C815.519 163.09 816.571 161.249 819.154 162.325C819.895 162.636 821.114 162.373 821.903 161.966C825.49 160.053 828.167 161.392 830.749 163.903C831.562 164.716 832.495 163.807 833.069 163.186C835.005 161.057 836.535 158.69 837.683 156.035C839.596 151.635 841.365 147.043 844.64 143.48C848.083 139.725 852.483 137.286 857.958 137.62C858.125 137.62 858.436 137.788 858.46 137.764C860.157 134.272 862.333 138.123 864.317 137.453C865.202 137.142 866.397 138.146 866.684 139.414C867.091 141.064 868.454 141.997 869.673 142.882C871.586 144.269 873.307 143.623 874.383 141.447C874.55 141.136 874.837 140.658 875.1 140.634C878.543 140.227 878.878 137.764 879.428 135.085C879.81 133.172 881.388 131.594 882.249 129.752C882.799 128.58 884.234 127.959 883.373 126.213C882.99 125.448 883.851 125.113 884.831 125.328C887.174 125.83 888.633 124.634 889.517 122.626C890.45 120.521 891.86 118.871 893.893 117.675C895.781 116.551 896.212 115.307 895.471 112.772C894.706 110.214 892.099 110.309 891.191 108.085C889.9 104.976 892.434 104.57 893.749 103.326C894.897 102.226 896.116 101.867 897.622 103.422C900.587 106.507 900.683 106.578 896.594 109.544C900.42 111.792 903.289 111.338 905.895 107.989C906.803 106.818 907.999 106.698 909.194 107.081C910.175 107.415 911.059 108.874 912.135 107.607C913.091 106.483 913.498 105.024 913.857 103.517C914.622 100.074 911.824 100.145 909.935 99.0452C906.612 97.108 903.767 98.6625 900.826 99.8344C899.942 100.169 898.914 100.863 898.292 99.9061C897.67 98.9495 898.603 98.2799 899.44 97.7059C900.85 96.7015 900.898 95.8405 898.985 95.434C898.34 95.2905 897.646 95.1948 897.096 94.9078C896.427 94.5491 895.279 94.6687 895.232 93.4968C895.208 92.5402 896.14 92.3967 896.618 91.8706C898.579 89.7661 901.4 88.5703 902.858 85.9157C903.982 83.8829 906.254 85.7962 908.071 84.6482C904.293 83.1894 906.134 81.324 907.258 79.1477C908.692 76.3975 909.577 73.3842 910.796 70.5383C911.633 68.6251 913.976 68.5772 915.339 67.2619C915.698 66.9271 916.797 67.0467 916.869 66.7597C917.802 63.6029 921.412 62.8376 922.846 60.3265C923.827 58.6046 925.524 58.485 926.815 57.8154C932.29 54.9456 936.163 49.8517 941.926 47.4601C942.906 47.0536 943.862 46.8144 944.938 46.8144C947.281 46.8144 949.529 46.8862 949.768 43.5141C949.863 42.0075 951.632 41.6009 953.187 41.7444C954.358 41.864 955.219 41.7922 955.769 40.3573C956.486 38.4919 958.088 38.7789 959.57 39.592C960.192 39.9268 960.861 40.4052 961.172 39.4725C961.483 38.5876 960.479 39.0659 960.12 38.8268C958.781 37.8701 958.973 37.0092 960.288 36.2678C961.196 35.7417 962.2 35.5265 963.276 35.5504C964.4 35.5504 965.476 36.0526 965.978 34.0437C966.36 32.5849 968.512 33.5654 969.994 33.7806C973.605 34.3068 976.952 36.507 980.801 35.4786C981.614 35.2634 982.331 35.1677 982.236 33.9002C982.14 32.4892 981.351 32.8001 980.538 32.8001C978.745 32.8001 976.952 32.0827 975.159 33.2545C974.274 33.8285 973.294 32.8719 973.676 31.9631C974.585 29.9064 973.796 26.8213 977.072 26.1278C977.98 25.9365 977.645 25.3147 977.598 24.8364C977.574 24.4537 977.693 23.9515 976.832 24.1907C975.589 24.5255 975.541 23.1862 975.852 22.8036C977.263 21.0817 977.239 18.6423 978.865 17.0879C979.319 16.6335 980.012 16.0356 980.514 16.0834C984.435 16.4421 986.946 13.5962 990.15 12.3287C991.584 11.7548 991.895 11.1569 991.847 9.76981C991.775 8.16749 992.923 7.61744 994.358 8.07183C996.438 8.71754 999.546 8.62188 997.872 12.3526C997.537 13.094 998.518 13.094 998.948 13.3571C1001.84 15.0551 1001.86 16.8248 999.02 18.6663C998.35 19.0967 997.322 19.0489 996.964 20.1012C998.47 20.8425 999.426 19.6946 1000.48 19.1685C1001.43 18.7141 1002.32 18.451 1003.01 19.3837C1003.75 20.3642 1003.11 21.0339 1002.32 21.7274C1001.03 22.8275 1000.5 24.5494 999.044 25.7691C1001.39 25.9126 1003.66 26.3669 1005.83 26.5104C1008.27 26.6539 1009.47 26.8931 1009.04 29.5237C1008.94 30.1216 1008.8 30.863 1009.68 31.1739C1011.29 30.2173 1008.39 27.2518 1011.45 27.0844C1013.17 26.9887 1013.17 28.7585 1013.68 30.0738C1014.73 29.9064 1015.64 27.9932 1016.74 29.4042C1018 31.0543 1015.97 31.9631 1015.28 33.2306C1018.6 33.3502 1018.17 33.2306 1017.38 36.4591C1016.59 39.6399 1014.54 40.8356 1011.86 41.7683C1008.75 42.8445 1006.86 45.1404 1005.67 48.0341C1004.9 49.9234 1003.85 50.7126 1001.72 49.8756C1000.72 49.469 999.665 49.0385 998.446 49.182C996.892 49.3733 995.218 48.9907 995.003 51.3344C994.955 51.7888 994.119 52.2671 993.569 52.6019C992.469 53.2954 992.134 54.0129 993.09 55.0891C994.262 56.3805 994.286 57.6002 992.612 58.5089C991.632 59.0351 991.895 59.9439 991.895 60.757C991.895 63.0528 991.393 64.3442 988.5 63.4355C987.113 62.9811 985.32 62.2158 983.909 64.416C982.953 65.8987 981.805 64.3682 981.208 63.3159C980.395 61.9288 980.06 60.1113 977.884 60.0634C977.574 59.9199 977.287 59.6808 977 60.0634C977.191 60.183 977.382 60.3026 977.574 60.4461C980.634 64.7747 975.733 62.7898 974.728 64.0573C976.235 65.2291 979.701 64.4399 979.152 68.1228C979.08 68.5294 981.925 69.0555 983.575 68.3142C987.496 66.5684 987.496 66.6162 990.006 69.9643C990.389 70.4665 990.867 70.9688 991.417 71.2796C994.884 73.2646 995.553 76.9715 996.796 80.1522C998.446 84.433 994.501 90.6509 990.03 91.5358C990.819 92.3968 991.202 93.3055 990.365 94.3817C989.863 95.0274 989.815 95.9123 990.604 96.0558C990.987 96.1275 992.517 96.271 992.397 94.9078C992.206 92.5163 993.903 92.9468 995.266 93.0903C997.896 93.3773 998.9 92.612 998.709 90.2205C998.589 88.7138 999.474 88.092 1000.77 88.1877C1003.44 88.379 1006.12 89.0486 1008.77 88.0203C1008.99 87.9246 1009.4 88.0203 1009.59 88.1638C1012.74 91.0575 1015.9 88.9769 1018.91 88.0442C1022.33 86.9919 1025.42 88.1638 1028.6 88.8573C1029.43 89.0486 1029.72 90.0531 1029.62 90.9858C1029.5 92.0141 1029.5 92.7794 1030.75 93.3534C1031.85 93.8795 1031.25 94.9078 1030.63 95.721C1028.57 98.4712 1025.58 100.528 1024.41 103.972C1023.96 105.311 1022.52 105 1021.42 104.785C1020.85 104.665 1020.2 104.426 1020.06 105.12C1019.87 105.981 1020.68 105.885 1021.21 105.861C1023.48 105.813 1023.86 107.2 1023.74 108.994C1022.35 109.353 1021.9 110.477 1021.42 111.625C1019.2 116.982 1017 122.362 1014.66 127.696C1006.26 146.828 996.629 165.242 983.144 181.505C982.212 182.629 980.873 183.537 980.634 185.14C979.582 185.786 978.769 186.623 978.171 187.699L978.147 187.675ZM644.619 219.697C644.882 219.625 645.169 219.554 645.432 219.434C645.958 219.195 646.914 219.171 646.221 218.238C645.575 217.401 645.336 218.382 645.002 218.621C644.715 218.812 644.571 219.171 644.356 219.458C644.093 219.578 643.83 219.697 643.567 219.817C642.515 219.817 641.535 220.965 640.435 219.817C639.048 218.382 640.483 217.186 640.913 215.919C638.881 216.253 637.949 217.425 637.47 219.075C636.849 221.204 635.295 222.519 633.238 223.213C631.9 223.667 630.441 224.385 630.274 225.58C629.939 227.781 628.887 228.02 626.927 228.378C626.161 228.522 627.118 231.727 625.277 232.922C624.416 233.496 623.627 234.19 622.862 234.883C622.456 235.242 622.193 235.744 621.858 236.175C621.547 236.438 621.356 236.725 621.667 237.06C621.714 237.131 622.097 236.892 622.336 236.797C623.818 236.342 624.87 235.768 625.851 234.214C626.807 232.683 626.855 230.339 629.843 229.646C632.545 229.024 635.677 228.331 637.996 226.107C639.287 224.887 639.24 221.371 642.563 223.069C642.563 222.878 642.611 222.711 642.611 222.519C642.515 221.371 643.854 221.204 644.141 220.319C644.308 220.104 644.476 219.889 644.643 219.697H644.619ZM723.614 215.082C728.013 217.856 728.276 217.832 728.922 215.082H723.614ZM808.682 159.838C807.964 160.22 807.127 160.627 807.271 161.607C807.39 162.516 808.203 163.138 809.016 163.162C809.973 163.162 809.877 162.086 809.973 161.44C810.068 160.699 809.71 160.005 808.705 159.838H808.682ZM621.117 237.562C621.117 237.562 621.021 237.705 621.021 237.729C621.117 237.992 621.236 237.992 621.356 237.729C621.356 237.681 621.332 237.586 621.284 237.562C621.26 237.538 621.165 237.562 621.117 237.562Z" fill="#04457A"/>
<path d="M453.994 275.204C422.913 267.982 393.027 257.316 364.241 243.828C332.848 229.096 300.476 217.162 267.171 207.453C259.855 205.324 252.73 202.646 245.557 200.158C235.205 196.571 224.685 193.606 213.878 191.764C200.537 189.492 187.65 185.211 174.285 183.179C154.99 180.237 135.648 177.654 116.258 175.502C116.378 174.713 115.971 174.45 115.278 174.689C114.441 174.976 113.7 174.904 113.437 174.019C113.126 173.015 113.795 172.393 114.656 172.082C116.162 171.508 117.716 171.149 119.342 171.532C120.92 171.891 121.853 171.723 122.283 169.762C123.024 166.51 124.124 166.151 127.447 167.132C129.408 167.706 131.249 166.223 133.329 166.701C133.927 166.845 133.927 165.481 133.951 164.764C134.022 163.449 134.668 162.277 135.983 162.755C138.708 163.783 140.167 161.799 141.386 160.435C143.49 158.116 146.072 157.924 148.511 158.403C150.567 158.809 151.595 158.498 152.671 156.872C153.651 155.389 155.325 155.222 157.023 155.365C158.027 155.461 158.648 155.939 158.553 156.968C158.314 159.335 159.892 160.483 161.661 161.392C162.546 161.846 163.263 162.349 163.765 163.162C164.124 163.736 164.291 164.692 165.391 163.927C166.18 163.377 167.064 162.994 166.467 161.775C165.128 158.953 166.036 156.322 167.447 153.883C167.949 152.998 167.59 152.806 167.16 152.352C166.419 151.587 166.084 150.63 165.821 149.626C165.271 147.641 166.228 147.115 168.021 147.306C169.479 147.473 170.675 148.239 171.966 148.789C173.783 149.554 175.528 151.635 177.704 149.291C177.991 148.98 178.78 149.195 178.923 149.65C179.76 152.161 182.055 151.85 183.872 151.898C187.459 151.945 190.806 152.854 194.129 153.93C195.946 154.528 197.787 155.15 199.676 154.887C202.856 154.457 205.844 155.581 209 155.581C212.085 155.581 212.826 154.098 213.328 151.993C214.069 148.908 214.643 145.799 215.097 142.666C215.48 140.012 217.297 139.223 219.52 139.294C226.502 139.51 226.55 139.605 228.797 133.076C229.156 132.048 229.634 131.641 230.566 131.713C231.786 131.809 232.24 131.45 231.857 130.207C231.786 129.967 232.168 129.322 232.383 129.298C236.52 129.059 238.695 123.965 243.334 125.065C245.748 125.639 247.255 124.323 248.593 122.602C251.63 118.727 255.121 115.307 259.305 112.629C259.687 112.366 260.141 111.696 260.381 111.792C263.513 112.772 266.238 110.19 269.394 110.931C272.622 111.72 275.371 108.276 274.821 104.402C274.224 100.217 276.83 96.9406 281.133 97.0362C285.58 97.108 290.027 97.8015 294.498 97.5145C295.096 97.4667 295.646 97.658 296.005 98.1363C297.2 99.6191 298.778 99.8104 300.595 99.8343C303.416 99.8343 304.803 101.604 303.966 104.259C303.393 106.1 303.942 106.339 305.473 105.717C307.242 105 308.198 105.813 308.796 107.272C309.561 109.137 309.537 111.17 308.055 112.438C306.835 113.466 306.262 112.198 305.831 110.979C305.592 110.285 305.951 108.683 304.612 108.97C303.345 109.257 303.369 110.429 304.182 111.433C305.186 112.701 303.656 113.657 303.656 114.925C303.656 117.101 304.899 117.962 306.262 118.703C307.768 119.54 307.84 119.923 306.764 121.334C305.329 123.199 306.907 125.089 308.031 126.428C309.107 127.719 309.394 128.939 309.441 130.47C309.633 135.898 309.25 141.327 308.796 146.732C308.7 147.736 308.27 148.717 308.126 149.721C307.816 151.658 306.309 153.524 308.198 155.628C308.796 156.298 308.294 157.972 308.126 159.168C307.887 160.938 306.19 162.54 307.6 164.501C307.696 164.644 307.529 165.123 307.361 165.266C304.134 167.801 303.775 172.776 299.711 174.45C295.24 176.267 290.362 177.009 285.915 174.808C280.153 171.962 275.73 167.658 274.654 160.938C274.463 159.79 274.128 158.857 273.483 157.876C271.45 154.767 271.474 151.156 271.163 147.641C271.068 146.517 271.211 145.441 269.872 144.867C269.299 144.627 268.533 143.838 269.036 143.312C271.474 140.658 268.916 138.409 268.82 135.779C266.549 137.333 269.514 139.318 267.936 140.729C266.788 140.873 266.812 139.725 266.238 139.103C263.967 141.351 264.421 144.412 263.919 147.067C263.13 151.156 259.902 154.409 255.694 154.337C254.81 154.337 254.595 154.863 254.164 155.341C253.423 156.178 252.73 157.494 251.797 157.709C247.781 158.642 247.231 162.468 245.175 164.979C244.864 165.362 244.672 165.697 245.175 166.151C247.518 168.327 246.155 170.743 245.222 172.823C243.525 176.698 245.964 182.581 250.028 183.777C250.769 183.992 251.032 183.777 251.391 183.298C252.132 182.27 252.849 180.907 252.371 179.902C250.865 176.769 252.825 173.947 252.849 170.958C252.873 168.877 256.794 166.438 259.711 166.725C262.269 166.988 262.795 168.83 262.628 171.03C262.532 172.154 262.7 173.278 262.293 174.354C261.193 177.176 262.03 179.328 264.66 180.859C265.306 181.242 265.569 181.839 264.708 182.366C262.843 183.49 263.536 185.02 264.469 186.072C265.64 187.412 267.051 189.253 269.227 188.249C270.877 187.483 272.287 186.168 271.283 183.992C270.279 181.839 271.737 180.739 273.1 179.52C274.606 178.18 276.352 177.822 278.097 178.754C279.46 179.472 280.583 179.759 282.09 179.137C283.309 178.635 284.768 178.73 285.843 179.735C287.804 181.529 290.099 182.031 292.681 181.792C295.096 181.552 296.148 182.94 297.75 184.709C300.523 187.77 301.312 190.568 299.4 194.204C303.942 193.677 307.146 191.429 310.422 189.349C311.713 188.536 311.426 187.268 311.33 186.096C310.972 181.385 311.545 180.572 316.088 179.448C318.431 178.874 320.463 177.774 322.304 176.219C324.217 174.617 325.484 172.8 325.054 170.169C324.863 169.021 325.102 167.777 326.321 167.299C327.612 166.821 328.162 168.04 328.664 168.877C330.529 172.01 332.537 175.024 334.88 177.846C335.598 178.707 336.004 179.831 334.857 180.811C334.307 181.265 334.187 181.624 334.402 182.437C335.167 185.379 333.518 187.651 331.82 189.803C330.888 190.999 329.549 191.119 328.282 190.258C327.277 189.564 326.225 188.847 325.484 187.914C323.452 185.355 321.252 187.196 319.101 187.507C318.933 187.531 318.67 187.914 318.694 188.105C318.957 190.712 318.025 192.936 317.044 195.328C315.945 198.03 319.674 201.904 322.52 201.522C323.093 201.45 323.452 201.282 323.906 200.804C326.847 197.6 330.816 196.763 335.072 198.652C336.721 199.393 336.721 196.858 338.132 197.576C339.208 198.126 338.419 200.23 340.332 200.015C340.906 199.943 341.503 200.015 342.029 199.824C346.428 198.197 350.254 199.226 353.697 202.191C354.51 202.885 355.514 202.622 356.446 202.622C358.407 202.622 359.746 203.267 360.009 205.994C361.156 202.167 363.212 202.167 365.842 203.602C367.325 204.391 368.951 204.846 370.648 205.181C371.485 205.348 372.609 205.731 372.322 207.022C372.107 207.979 371.389 208.385 370.409 208.314C368.903 208.242 367.875 208.864 367.373 210.275C366.703 212.092 365.03 212.164 363.547 212.307C363.547 214.842 366.608 214.292 367.325 216.11C367.468 216.493 367.755 216.014 367.946 215.919C370.983 214.412 375.047 215.297 377.606 218.191C379.853 220.749 382.172 222.806 386.022 221.754C387.073 221.467 388.293 221.634 389.44 221.706C391.042 221.802 392.549 222.782 392.286 224.217C391.927 226.059 392.501 228.091 391.305 229.789C388.819 231.368 388.747 232.564 391.114 234.309C391.234 232.922 391.234 231.511 391.903 230.244C392.931 230.005 393.935 230.1 394.987 230.387C399.434 231.631 400.821 229.431 401.204 224.911C401.682 219.243 400.271 213.838 400.319 208.29C400.319 206.137 401.514 205.157 403.355 204.942C405.364 204.726 406.296 206.137 406.44 207.883C406.631 210.107 406.703 212.379 406.607 214.603C406.535 216.803 407.348 218.143 409.285 219.362C415.597 223.38 421.598 227.948 421.598 236.27C421.598 239.427 422.339 241.795 424.73 243.756C424.921 243.923 425.136 244.234 425.112 244.497C424.993 248.922 428.962 251.696 429.846 255.785C430.325 257.961 431.066 259.994 429.966 262.816C432.548 260.999 434.891 260.018 435.919 257.411C436.326 256.407 436.971 255.69 435.967 254.733C435.848 254.613 435.8 254.398 435.8 254.207C435.585 250.356 436.876 246.889 438.119 243.254C436.637 243.23 436.134 241.675 435.202 240.503C433.72 238.59 435.393 237.538 436.302 236.39C438.836 233.161 439.721 228.833 443.259 226.25C443.857 225.819 443.666 225.413 443.068 224.959C441.036 223.428 442.159 222.424 443.833 221.802C444.885 221.419 445.698 221.228 445.602 219.817C445.531 218.621 446.726 218.191 447.635 217.736C454.281 214.364 460.426 210.418 464.61 204.081C465.973 202 467.694 201.761 470.205 202.287C474.173 203.1 477.521 204.822 480.461 207.381C482.948 209.557 482.972 210.825 481.49 213.718C478.907 218.717 475.321 222.902 471.161 226.656C469.224 228.402 468.411 230.339 468.722 233.114C469.248 237.705 467.455 241.747 465.04 245.717C462.171 250.476 459.206 255.235 457.342 260.52C456.72 262.242 456.672 264.036 457.294 265.758C458.8 269.799 458.441 273.172 454.018 275.204H453.994Z" fill="#04457A"/>
<path d="M980.613 185.116C980.852 183.514 982.191 182.605 983.124 181.481C996.584 165.218 1006.22 146.804 1014.64 127.672C1016.98 122.339 1019.18 116.958 1021.4 111.601C1021.88 110.453 1022.33 109.329 1023.72 108.97C1024.18 116.24 1024.44 123.534 1025.51 130.757C1025.59 131.307 1025.71 131.952 1025.51 132.431C1024.06 136.233 1026.28 139.39 1027.04 142.858C1027.5 144.962 1028.41 146.517 1029.55 148.143C1029.77 148.454 1030.06 148.932 1029.96 149.171C1028.67 151.73 1030.89 153.476 1031.42 155.605C1031.63 156.418 1032.4 157.35 1032.18 157.972C1030.49 162.683 1034.55 164.74 1036.58 167.753C1037.25 168.758 1038.19 169.858 1037.3 171.078C1036.39 172.321 1035.2 171.341 1034.17 171.03C1030.2 169.906 1023.96 172.584 1021.21 175.478C1017.94 178.922 1018.58 183.059 1018.58 186.79C1018.58 188.655 1019.42 191.453 1020.88 193.462C1021.31 194.06 1021.66 194.754 1021.93 195.447C1022.26 196.332 1022.6 197.36 1021.55 197.958C1020.61 198.484 1019.73 198.078 1019.03 197.289C1018.25 196.356 1017.43 195.447 1016.62 194.538C1015.64 193.462 1015.04 193.725 1014.83 195.089C1014.47 197.36 1013.89 199.68 1016.72 201.019C1017.62 201.45 1017.84 202.215 1017.36 203.148C1016.88 204.057 1017.07 205.444 1015.35 205.42C1011.43 205.348 1011.07 208.983 1009.83 211.231C1008.92 212.905 1010.48 214.771 1012.08 216.134C1016.38 219.721 1019.03 224.169 1020.04 229.766C1020.71 233.425 1023 236.605 1025.61 239.403C1026.26 240.121 1027.19 240.743 1028.07 239.858C1028.79 239.14 1030.37 239.164 1029.89 237.227C1029.22 234.525 1032.11 235.027 1033.48 234.309C1034.79 233.616 1036.2 233.616 1037.06 235.338C1037.99 237.227 1037.61 239.14 1037.42 241.245C1039.36 241.149 1041.17 241.532 1042.66 242.871C1043.3 243.469 1043.92 243.995 1044.5 242.608C1045.31 240.719 1046.72 241.101 1047.87 242.297C1049.09 243.565 1050.59 244.258 1052.17 244.928C1053.7 245.573 1055.52 246.219 1055.3 248.419C1055.14 250.165 1054.01 251.385 1052.48 252.031C1050.62 252.82 1049.18 251.983 1048.25 249.376C1047.63 252.461 1048.9 254.231 1049.85 255.929C1051.12 258.225 1052.77 260.305 1054.37 262.386C1055.88 264.347 1057.93 265.375 1060.44 265.614C1063.03 265.854 1065.37 266.571 1066.16 269.369C1067.07 272.55 1067.5 275.659 1063.96 277.811C1061.86 279.103 1061.57 280.824 1061.88 283.312C1062.29 286.875 1063 289.96 1065.56 292.686C1067.5 294.719 1069.48 296.321 1072.28 297.111C1074.77 297.804 1075.29 299.741 1073.31 300.889C1070.39 302.563 1070.01 304.955 1070.2 307.801C1070.27 308.925 1070.25 310.049 1070.25 311.173C1066.64 318.276 1062.6 325.139 1058.29 331.859C1050.28 327.387 1042.61 322.365 1034.86 317.51C1028.84 313.732 1023.08 309.69 1017.82 304.883C1012.17 299.717 1009.33 293.332 1008.49 285.966C1008.2 283.503 1007.56 281.279 1005.74 279.39C1003.69 277.237 1003.09 274.87 1003.69 271.713C1004.93 265.136 1006.32 258.32 1004.45 251.791C1001.96 243.086 1000.27 234.262 998.712 225.365C998.401 223.619 997.899 221.874 995.915 221.108C994.839 220.702 994.72 219.793 994.72 218.812C994.72 215.823 994.791 212.834 995.628 209.94C996.274 207.692 996.465 204.846 995.461 203.435C994.313 201.785 993.524 198.987 990.631 198.795C990.033 198.748 989.46 198.556 989.173 198.03C986.758 193.749 981.426 191.238 981.331 185.546C981.331 185.403 980.876 185.283 980.613 185.14V185.116Z" fill="#04457A"/>
<path d="M390.638 189.684C390.71 187.627 388.988 186.431 388.128 184.829C387.004 182.748 387.171 181.648 389.443 181.313C391.164 181.05 391.857 180.094 392.527 178.683C391.451 178.396 390.925 179.113 390.351 179.615C389.73 180.165 389.036 181.146 388.223 180.5C387.458 179.926 386.908 178.826 387.434 177.75C388.367 175.885 386.861 172.393 390.949 172.537C391.212 172.537 391.403 171.365 390.782 171.221C389.084 170.791 387.913 170.025 388.319 168.16C388.749 166.223 389.443 164.214 391.571 163.568C393.555 162.97 395.324 161.129 397.883 162.947C399.341 163.975 403.668 161.033 404.505 158.666C405.055 157.063 405.916 156.37 407.589 156.418C409.096 156.466 410.124 155.27 411.487 154.887C418.635 152.854 425.665 150.487 432.407 147.33C433.865 146.66 434.965 145.345 436.663 145.13C436.902 145.106 437.284 144.914 437.332 144.723C437.739 143.193 437.428 140.753 440.01 141.519C441.683 141.997 443.309 141.088 444.959 142.069C446.154 142.762 447.613 141.997 449.071 141.59C452.968 140.466 456.985 138.386 461.265 140.658C462.389 141.255 463.823 140.825 465.162 141.016C469.537 141.686 473.65 143.384 477.977 143.958C479.794 144.197 481.587 143.527 483.141 145.178C483.691 145.775 484.432 144.699 485.006 144.269C486.943 142.858 488.999 141.877 491.509 141.806C494.211 141.734 495.311 143.336 495.765 145.465C496.554 149.243 492.179 154.72 488.258 155.437C485.461 155.939 482.783 155.437 480.057 155.27C475.706 155.031 471.115 155.294 467.099 153.954C464.23 152.998 461.695 154.217 459.089 153.428C458.181 153.141 457.511 153.859 456.77 154.265C452.729 156.537 448.498 157.972 443.787 157.135C442.927 156.992 442.64 157.613 442.138 157.948C437.643 160.962 432.718 163.066 427.482 164.453C426.573 164.692 425.593 164.931 425.019 165.673C424.206 166.725 423.274 167.18 422.126 166.342C421.194 165.673 420.739 166.51 420.142 166.797C418.803 167.443 417.559 168.662 416.173 168.854C412.108 169.38 410.411 172.417 408.283 175.167C406.107 177.989 404.362 180.883 403.668 184.494C402.879 188.512 403.621 192.506 403.286 196.5C403.214 197.48 403.764 198.676 402.616 199.274C401.493 199.872 400.01 199.417 399.532 198.58C398.504 196.858 395.468 196.834 395.755 194.132C395.755 193.988 395.396 193.63 395.229 193.654C393.22 193.869 392.814 192.769 392.814 191.095C392.814 190.784 391.953 189.779 391.164 190.784L391.236 190.832C391.786 190.066 391.379 189.779 390.638 189.636L390.686 189.684H390.638Z" fill="#04457A"/>
<path d="M978.817 423.431C981.255 425.392 983.837 427.161 986.683 428.572C991.034 430.725 994.262 434.36 998.063 437.23C1003.63 441.439 1009.06 445.887 1014.92 449.69C1017.26 451.196 1020.11 452.081 1022.4 453.827C1023 454.281 1023.88 454.544 1023.5 455.477C1023.12 456.386 1022.24 456.147 1021.49 456.003C1019.68 455.644 1018.55 454.09 1016.98 453.253C1011.64 450.383 1006.31 451.507 1003.13 456.505C1002.49 457.51 1002.51 458.466 1003.2 459.375C1005.57 462.365 1006.86 465.737 1007.7 469.42C1008.42 472.576 1010.52 475.111 1012.67 477.503C1014.13 479.129 1015.95 480.11 1018.24 479.416C1019.77 478.962 1020.8 479.488 1021.61 480.755C1023.14 483.171 1025.08 484.486 1028 482.788C1028.45 482.525 1029.1 482.405 1029.31 482.764C1031.13 485.61 1034.88 487.069 1035.27 490.919C1035.38 492.235 1035.17 493.048 1033.62 492.139C1032.87 491.708 1031.92 491.469 1031.46 490.848C1029.43 488.121 1026.92 488.863 1024.51 489.891C1022.69 490.68 1022.52 492.474 1023 494.148C1023.57 496.205 1024.34 498.237 1025.13 500.222C1025.61 501.394 1025.58 502.422 1024.6 503.26C1023.62 504.097 1022.52 503.69 1021.73 503.044C1018.36 500.318 1014.3 498.213 1013.91 493.024C1013.7 489.987 1012.07 487.308 1009.16 485.754C1007.65 484.941 1007.12 483.601 1006.77 482.119C1005.74 477.838 1004.59 473.7 999.211 472.768C998.231 472.6 997.896 471.5 997.489 470.639C993.042 461.336 987.472 452.822 979.916 445.672C979.39 445.17 978.697 444.476 978.673 443.854C978.578 440.004 975.159 438.808 972.911 436.68C972.457 436.249 971.764 435.914 971.142 435.867C967.699 435.627 965.308 434.001 963.945 430.868C969.181 428.907 974.107 426.372 978.817 423.407V423.431Z" fill="#04457A"/>
<path d="M746.352 144.245C745.802 142.212 743.985 141.71 742.742 140.658C741.809 139.892 740.494 139.294 741.164 137.764C741.738 136.425 743.076 137.142 743.913 136.855C745.826 136.162 747.261 136.568 748.91 137.286C749.986 137.764 750.369 136.736 750.895 136.138C753.429 133.22 756.681 132.503 760.052 134.105C760.315 134.224 760.721 134.416 760.721 134.583C760.721 137.764 764.905 140.49 761.797 143.982C761.175 144.675 760.936 145.178 761.94 145.871C762.729 146.397 762.514 147.306 761.773 147.736C760.1 148.717 759.263 151.228 756.609 150.511C755.915 150.319 755.485 150.726 755.222 151.515C754.457 153.739 754.17 156.346 751.11 156.992C750.273 157.159 750.679 157.877 750.871 158.355C751.708 160.722 750.512 160.986 748.384 161.775C744.607 163.162 742.383 161.416 739.897 159.383C739.131 158.761 738.175 158.307 737.099 158.14C736.239 157.996 735.33 157.422 735.354 156.537C735.45 153.572 731.935 152.161 732.174 149.147C732.174 148.956 731.6 148.741 731.289 148.502C730.811 148.143 730.333 147.402 730.692 147.067C732.341 145.417 732.676 142.977 734.135 141.375C735.569 139.773 738.342 140.921 739.084 141.686C741.14 143.838 743.626 143.719 746.376 144.245H746.352ZM759.263 145.417C754.911 145.13 753.405 143.36 753.835 139.199C753.883 138.744 754.122 138.218 753.525 138.051C753.118 137.931 752.233 138.051 752.21 138.146C751.994 139.557 750.034 140.777 751.971 142.451C753.644 143.91 755.652 145.106 756.465 147.402C757.422 146.708 758.282 146.086 759.239 145.417H759.263Z" fill="#04457A"/>
<path d="M1058.24 331.812C1062.55 325.091 1066.61 318.252 1070.2 311.125C1072.42 314.377 1073.45 318.347 1076.7 321.002C1078.42 322.413 1078.61 324.804 1079.19 326.861C1080.74 332.314 1080.17 337.982 1080.79 343.554C1080.91 344.487 1080.86 345.874 1079.93 346.328C1078.78 346.902 1078.18 345.539 1077.42 344.917C1075.41 343.291 1072.76 343.052 1070.58 341.617C1066.16 338.699 1062.83 334.466 1058.22 331.812H1058.24Z" fill="#04457A"/>
<path d="M978.819 423.43C974.109 426.42 969.184 428.931 963.948 430.892C962.441 429.361 962.25 427.233 961.389 425.463C959.764 422.091 959.19 418.05 955.58 415.682C952.734 413.84 953.237 411.162 956.536 409.942C957.325 409.655 957.755 409.368 957.54 408.627C956.536 404.944 955.627 402.457 951.085 401.572C949.076 401.189 947.212 400.855 949.507 398.343C950.32 397.459 948.598 395.163 950.893 395.043C952.089 394.995 953.308 396.024 954.575 396.406C956.297 396.932 957.755 397.578 958.066 399.611C958.138 400.041 958.425 400.639 958.759 400.783C963.78 402.696 965.382 408.22 969.758 410.827C972.364 412.382 972.914 415.18 973.87 417.667C974.444 419.126 974.468 420.632 976.595 421.015C977.456 421.182 978.078 422.593 978.795 423.43H978.819ZM955.699 400.041C955.054 398.941 953.021 397.674 952.328 397.937C951.898 398.104 951.85 398.487 951.922 398.822C952.304 400.376 953.763 399.611 954.695 400.041C955.006 400.185 955.364 400.4 955.699 400.041Z" fill="#04457A"/>
<path d="M586.571 124.491C588.364 125.065 589.847 124.347 591.424 123.534C595.393 121.477 595.632 121.669 595.943 126.213C597.88 125.28 599.96 124.706 600.988 127.097C601.801 128.963 600.534 131.45 602.638 133.028C600.223 134.176 603.929 137.955 600.151 138.625C599.458 138.744 600.223 139.39 600.39 139.653C601.753 141.71 602.16 143.647 599.673 145.153C597.043 146.732 593.242 146.11 591.783 143.862C591.138 142.882 591.042 141.327 589.153 142.26C588.818 142.427 587.79 141.805 587.551 141.327C587.001 140.227 586.762 139.438 585.017 139.653C583.702 139.82 583.798 138.075 583.774 136.974C583.75 135.013 583.535 133.363 580.785 134.583C579.877 134.989 578.585 135.157 578.131 133.889C577.677 132.646 579.016 132.502 579.685 131.928C580.498 131.235 581.861 130.924 581.55 129.417L581.455 129.537C583.439 129.68 585.639 127.241 585.519 124.993L585.447 125.041C586.236 125.591 586.571 125.208 586.691 124.443L586.595 124.491H586.571Z" fill="#04457A"/>
<path d="M512.332 86.2026C511.83 86.7526 511.304 87.2787 510.802 87.8288C509.678 89.0963 508.507 90.9856 506.69 90.0529C505.04 89.2159 503.916 87.4461 503.653 85.4133C503.629 85.1503 503.701 84.8633 503.701 84.5763C503.701 84.098 504.107 83.3806 503.055 83.5001C502.41 83.5719 501.932 83.8589 502.075 84.5763C502.458 86.6091 501.406 87.0874 499.66 86.8483C499.565 86.8483 499.469 86.8483 499.374 86.8243C497.915 86.7048 497.867 89.0006 496.098 88.5701C494.616 88.2114 495.811 86.4178 494.137 85.8917C492.655 85.4133 492.655 83.0936 491.531 81.7304C490.91 80.989 493.181 80.9651 493.827 79.7933C489.786 80.6542 491.89 77.9279 491.675 76.2777C490.719 76.9235 489.714 77.2583 490.408 78.5736C490.719 79.1476 490.623 79.6498 490.073 80.0324C489.069 80.6781 484.478 78.3584 484.311 77.1626C484.215 76.5408 484.43 75.8234 485.004 75.7994C487.802 75.7038 490.049 73.9819 492.655 73.3601C493.062 73.2644 493.946 73.4079 493.97 73.5514C494.281 75.7038 496.624 76.9713 496.481 79.2432C496.409 80.2238 498.8 81.7782 500.186 81.2043C501.908 80.5107 503.055 80.8934 504.633 81.6348C505.422 82.0174 507.598 82.7109 508.531 80.7021C509.272 79.1237 511.065 79.9368 512.595 79.4106C511.232 78.5975 509.87 77.904 510.587 76.1582C511.065 75.0102 509.965 74.9146 509.415 74.6754C508.578 74.3406 507.861 74.795 507.789 75.6799C507.646 77.5692 507.072 78.6214 504.944 77.5453C504.418 77.2822 504.323 77.6409 504.323 78.0475C504.323 78.2388 504.347 78.454 504.275 78.5975C504.036 79.1237 503.319 79.8172 503.079 79.4824C501.597 77.4257 499.421 81.013 498.035 78.8128C497.724 78.3105 497.58 77.8562 497.963 77.2822C498.632 76.3256 499.397 76.8756 500.378 77.1865C499.876 75.2494 499.493 73.4558 498.895 71.7339C498.632 70.9447 498.322 70.3946 499.134 69.8207C499.971 69.2228 500.641 69.8207 501.167 70.2272C501.717 70.7055 502.123 71.3991 502.434 72.0687C503.127 73.5753 503.103 73.5753 504.753 72.5709C504.227 71.5665 502.147 70.8729 503.581 69.5098C505.136 68.027 506.211 70.012 507.479 70.7294C507.981 69.7489 507.813 68.2422 509.344 68.314C511.113 68.3857 510.276 70.012 510.754 70.849C511.782 72.6426 511.591 75.0102 513.599 76.3973C514.508 77.0191 515.44 78.0236 513.528 79.1715C511.997 80.1042 514.866 80.439 514.388 81.7782C514.006 82.9023 511.208 81.6826 512.476 83.8589C512.858 84.5046 512.595 85.1264 512.81 85.7242L512.882 85.6764C512.308 85.5329 512.308 85.9634 512.236 86.2982L512.284 86.2265L512.332 86.2026Z" fill="#04457A"/>
<path d="M608.326 143.001C608.804 141.997 608.972 141.566 609.187 141.184C609.785 140.131 610.287 138.649 611.578 138.696C613.036 138.744 612.988 140.466 613.467 141.518C613.873 142.427 613.897 143.192 615.523 143.312C617.101 143.432 618.272 145.656 618.344 147.091C618.44 148.98 617.149 150.989 615.284 151.778C613.108 152.711 611.028 154.265 608.35 153.691C607.657 153.548 606.7 153.476 606.27 154.241C605.003 156.489 602.277 156.513 600.484 157.996C599.026 159.192 597.95 158.666 597.998 156.513C598.045 154.289 599.002 152.567 600.46 151.084C601.321 150.2 601.799 149.458 601.13 148.167C600.604 147.162 601.703 146.086 601.799 145.369C601.99 143.503 603.281 142.045 603.186 140.083C603.09 138.362 602.277 135.348 606.174 136.329C606.916 136.52 606.653 135.54 607.035 135.181C608.255 134.081 609.259 134.511 610.263 135.468C611.41 136.592 610.693 136.951 609.641 137.668C608.087 138.72 607.513 140.37 608.374 142.977L608.326 143.001Z" fill="#04457A"/>
<path d="M581.549 129.417C578.226 129.561 575.548 127.337 575.428 124.3C575.381 123.056 575.978 122.554 577.198 123.032C577.795 123.271 578.321 123.654 579.182 124.132C579.086 122.649 579.66 121.454 577.604 121.047C575.715 120.664 576.05 119.445 577.341 118.536C578.393 117.795 579.732 117.388 580.449 116.192C580.904 115.451 582.123 114.853 580.33 114.04C579.302 113.586 579.636 112.581 580.545 112.055C582.147 111.146 583.438 109.592 585.59 109.879C587 110.07 587.55 109.257 587.957 108.037C588.244 107.176 588.913 106.411 590.061 106.435C591.28 106.459 591.304 107.511 591.83 108.229C593.312 110.213 592.643 113.131 594.914 114.757C595.44 115.14 595.177 115.834 594.699 116.216C593.982 116.79 593.982 117.316 594.34 118.129C595.321 120.401 594.197 121.525 591.997 122.195C590.132 122.793 587.789 122.386 586.546 124.443L586.642 124.395C586.068 124.276 585.638 124.395 585.398 124.993L585.47 124.945C584.346 125.16 582.816 124.993 582.84 126.619C582.84 127.911 581.812 128.485 581.406 129.465L581.501 129.346L581.549 129.417Z" fill="#04457A"/>
<path d="M57.6095 132.67C57.6095 132.67 57.8008 132.407 57.7769 132.287C57.5617 130.972 56.4619 129.25 58.2312 128.58C60.1199 127.863 61.0046 129.776 61.8892 131.044C63.1086 132.861 63.0846 135.133 63.9454 137.262C64.6626 136.951 65.2843 136.568 66.0015 136.377C68.225 135.779 69.4922 136.735 69.3966 139.079C69.277 141.614 68.3446 144.054 70.0899 146.589C71.0463 148 68.249 151.085 66.0254 151.443C65.1886 151.563 64.2323 151.3 63.5389 151.898C61.0524 154.098 60.3112 152.352 59.4505 150.319C56.9162 144.293 55.3143 137.907 52.3735 132.024C52.0148 131.331 51.9431 130.589 52.6604 129.991C53.4016 129.394 54.1427 129.633 54.7644 130.111C55.7685 130.9 56.6771 131.809 57.6334 132.67H57.6095Z" fill="#04457A"/>
<path d="M46.8023 345.156C33.7481 346.783 20.9808 349.437 8.76337 354.411C7.87874 353.024 7.68747 351.255 8.52428 350.155C10.174 348.002 10.437 345.85 9.98272 343.363C9.83927 342.597 13.2104 339.728 14.0233 339.751C14.7406 339.751 14.8601 340.206 15.0992 340.78C16.9163 344.941 18.7812 345.993 23.1565 345.324C25.9777 344.917 28.7751 343.961 31.2138 346.424C31.5724 346.783 32.5049 346.591 33.1504 346.663C33.3178 346.806 33.6047 347.093 33.6525 347.046C34.035 346.783 33.7959 346.496 33.5807 346.256C32.6483 344.056 31.3811 341.928 33.1504 339.465C34.1785 338.006 34.9436 337.862 35.7086 339.512C36.2585 340.684 37.4062 340.923 38.243 341.569C40.4426 343.267 42.7617 343.913 45.3917 344.224C45.8699 344.271 46.3003 344.821 46.7545 345.156H46.8023Z" fill="#04457A"/>
<path d="M903.601 44.2075C906.542 47.2686 904.222 50.1863 904.222 53.0322C904.222 54.1084 902.095 54.5628 900.78 53.6301C897.982 51.669 896.261 49.1579 895.735 45.6185C895.161 41.6486 895.567 38.0613 897.552 34.6175C898.269 33.3739 899.082 32.2499 900.254 31.4129C902.907 29.4518 905.944 30.6954 906.781 33.8522C907.283 35.7893 906.828 37.7026 907.187 39.6397C907.617 41.9355 907.594 44.2792 903.601 44.2075Z" fill="#04457A"/>
<path d="M766.582 132.574C766.151 130.35 766.94 128.843 769.068 128.269C769.499 128.15 770.216 127.839 770.383 128.006C772.822 130.637 772.822 127.743 773.993 126.739C775.787 125.184 777.986 123.989 780.162 122.984C781.262 122.482 783.605 125.424 783.653 127.074C783.772 132.646 780.186 136.042 774.448 136.305C772.057 136.401 769.738 137.405 767.371 137.883C765.673 138.242 763.952 138.386 764.382 135.755C764.597 134.32 763.402 133.602 762.732 132.646C762.23 131.928 761.656 131.139 762.469 130.398C763.426 129.537 763.952 130.517 764.526 131.091C765.052 131.594 765.362 132.311 766.582 132.574Z" fill="#04457A"/>
<path d="M360.893 186.575C360.989 190.521 358.861 192.003 354.103 192.027C351.545 192.027 349.298 191.142 347.218 189.851C345.209 188.607 344.612 186.431 345.927 184.566C348.317 181.194 351.497 179.041 355.873 179.065C358.718 179.065 359.913 180.476 360.774 184.853C360.917 185.57 360.87 186.335 360.893 186.598V186.575Z" fill="#04457A"/>
<path d="M481.062 73.695C481.898 74.0777 483.524 73.5037 483.452 74.8669C483.381 76.0387 482.616 77.2106 482.018 78.3107C481.803 78.7172 481.133 78.7172 480.751 78.3346C479.962 77.5932 479.436 76.6366 479.723 75.6082C480.368 73.3602 479.771 71.9253 477.595 70.8491C475.634 69.8686 475.61 64.7747 477.547 63.6507C479.938 62.2397 479.484 64.4877 479.89 65.7552C481.109 64.966 482.233 63.9137 483.859 64.2964C483.62 62.7897 482.4 62.8136 481.492 62.431C480.536 62.0244 479.508 61.7614 478.91 60.8047C478.312 59.8721 477.499 58.8676 478.24 57.7436C478.982 56.6196 480.105 57.1936 481.062 57.5284C482.042 57.8632 482.974 58.2697 483.931 58.6524C487.302 60.0155 487.732 62.5266 485.054 64.8225C486.298 65.1573 486.25 65.1095 487.78 64.2724C488.617 63.8181 489.693 62.5266 490.458 63.5789C491.127 64.5116 493.231 65.3965 491.677 67.214C491.534 67.3814 491.39 67.788 491.486 67.9076C492.084 68.6489 492.992 69.5099 491.749 70.2034C490.506 70.873 488.808 71.0165 487.708 70.1556C485.748 68.6011 483.668 69.7968 481.683 69.486C481.014 69.3903 480.249 70.4665 481.229 70.9209C483.739 72.0927 481.803 72.7862 481.062 73.7189V73.695Z" fill="#04457A"/>
<path d="M769.641 160.938C773.323 161.201 776.001 162.922 778.392 165.051C779.683 166.199 779.587 167.371 778.033 168.495C775.547 170.288 772.893 171.508 769.785 171.891C767.824 172.13 765.912 172.68 764.716 174.545C764.381 175.071 763.808 175.932 762.875 175.454C761.775 174.88 762.373 173.876 762.708 173.254C763.927 171.03 763.999 168.973 762.875 166.629C761.967 164.74 763.258 162.492 765.457 161.798C766.868 161.344 768.398 161.201 769.617 160.961L769.641 160.938Z" fill="#04457A"/>
<path d="M476.806 279.916C471.474 278.911 466.142 277.931 460.811 276.926C459.4 275.587 459.304 274.128 460.739 272.837C461.839 271.832 460.93 269.656 463.56 269.369C467.553 268.915 471.211 269.154 474.654 271.187C475.036 271.402 475.586 272.024 475.491 272.215C474.271 275.061 477.236 277.213 476.782 279.916H476.806Z" fill="#04457A"/>
<path d="M61.3411 343.554C57.4201 343.984 53.499 344.415 49.578 344.845C48.1195 343.984 47.4501 342.334 45.896 341.449C44.4376 340.636 42.9074 339.393 43.8398 337.408C44.7006 335.566 48.8607 334.275 50.3191 335.542C51.9688 336.977 53.4512 337.025 55.4595 336.571C57.3722 336.164 58.9502 337.24 59.6914 339.082C60.2891 340.541 60.7673 342.047 61.2933 343.53L61.3411 343.554Z" fill="#04457A"/>
<path d="M1078.09 485.012C1077.8 481.616 1078.4 478.292 1077.87 474.8C1077.66 473.341 1077.66 470.161 1080.19 469.013C1081.24 468.535 1081.03 467.626 1081.29 466.908C1082.2 464.445 1082.99 461.934 1084.88 459.997C1085.67 459.184 1086.67 458.275 1087.82 459.255C1088.92 460.164 1087.77 460.929 1087.29 461.623C1085.59 464.062 1084.73 466.789 1084.35 469.706C1084.23 470.615 1084.04 471.596 1083.56 472.361C1081.96 475.016 1081.29 477.885 1081.58 480.923C1081.74 482.692 1081.22 484.223 1080.29 485.658C1079.9 486.256 1079.66 487.212 1078.68 486.901C1077.8 486.638 1077.85 485.777 1078.06 485.012H1078.09Z" fill="#04457A"/>
<path d="M1027.28 225.676C1027.33 227.015 1027.43 227.996 1026.4 228.283C1025.37 228.57 1024.84 227.685 1024.46 226.991C1023.93 226.011 1023.62 224.911 1023.17 223.906C1022.91 223.332 1022.86 222.352 1022.19 222.328C1018.51 222.184 1020.25 220.223 1020.73 218.549C1021.11 217.114 1021.28 215.632 1021.5 214.173C1021.62 213.264 1021.93 212.523 1022.86 212.26C1023.82 211.996 1024.53 212.546 1025.06 213.216C1025.51 213.79 1026.04 214.508 1026.06 215.153C1026.11 218.884 1026.13 222.591 1027.28 225.7V225.676Z" fill="#04457A"/>
<path d="M1071.32 495.654C1071.46 493.359 1071.49 491.374 1074.31 491.493C1075.03 491.517 1075.24 491.063 1075.41 490.465C1075.55 489.939 1075.79 489.269 1076.48 489.365C1077.37 489.484 1077.32 490.345 1077.25 490.919C1077.06 492.187 1076.89 493.526 1076.37 494.698C1074.91 497.902 1074.79 501.179 1075.53 504.527C1075.72 505.34 1075.89 506.129 1075.05 506.44C1073.93 506.847 1073.59 505.794 1073.3 505.077C1072.04 501.92 1072.04 498.524 1071.34 495.63L1071.32 495.654Z" fill="#04457A"/>
<path d="M1088.89 235.864C1088.99 237.036 1085.45 238.638 1083.71 238.112C1082.34 237.705 1081.05 237.323 1079.57 237.777C1078.47 238.112 1076.89 238.686 1076.53 236.94C1076.2 235.242 1077.2 233.233 1078.88 233.448C1081.84 233.831 1085.02 233.042 1087.82 234.644C1088.32 234.931 1088.75 235.29 1088.89 235.864Z" fill="#04457A"/>
<path d="M1090.02 445.193C1090.47 448.326 1089.66 451.315 1088.94 454.329C1088.75 455.142 1088.35 456.075 1087.29 455.907C1086.27 455.74 1086 454.783 1086.15 453.922C1086.86 449.976 1087.32 446.006 1087.48 441.989C1087.53 441.128 1087.89 439.645 1089.25 439.836C1090.78 440.051 1090.04 441.462 1090.11 442.371C1090.19 443.304 1090.04 444.237 1090.02 445.169V445.193Z" fill="#04457A"/>
<path d="M645.121 207.644C645.384 207.476 645.623 207.333 645.886 207.166C647.536 207.716 649.09 208.816 649.64 205.731C649.927 204.104 652.102 205.037 653.417 204.822C654.206 204.678 655.067 204.917 655.163 205.802C655.282 206.902 655.402 207.811 654.565 209.031C652.772 211.662 650.859 211.255 648.923 209.94C647.703 209.103 645.097 210.394 645.145 207.644H645.121Z" fill="#04457A"/>
<path d="M512.859 85.7005C514.843 84.9592 517.377 85.9875 518.931 83.6199C519.362 82.9742 520.772 82.9981 520.94 84.4569C521.155 86.3462 520.438 87.8529 519.003 89.1443C517.592 90.4118 515.943 90.6271 514.269 90.1009C512.38 89.503 512.333 87.829 512.356 86.2027L512.309 86.2745C512.524 86.2984 512.715 86.7528 512.93 86.3462C513.026 86.1549 512.93 85.8918 512.954 85.6766L512.882 85.7244L512.859 85.7005Z" fill="#04457A"/>
<path d="M907.259 415.515C907.642 414.247 906.996 411.975 909.602 411.76C911.3 411.617 914.217 414.486 914.169 416.017C914.121 417.595 913.714 419.198 911.826 419.341C908.502 419.58 907.211 418.456 907.259 415.515Z" fill="#04457A"/>
<path d="M480.342 200.589C480.246 201.593 479.457 202.072 478.788 201.88C476.923 201.306 475.034 201.617 473.193 201.426C471.52 201.259 471.017 200.446 472.069 199.035C472.691 198.221 473.384 197.48 474.054 196.691C475.201 195.328 476.684 195.639 478.19 195.83C479.935 196.069 478.979 197.36 479.242 198.198C479.505 199.035 479.983 199.824 480.366 200.589H480.342Z" fill="#04457A"/>
<path d="M733.42 158.235C733.635 158.953 733.205 159.144 732.655 159.431C731.961 159.814 731.436 159.742 730.886 159.263C729.332 157.9 727.969 156.346 726.917 154.576C726.51 153.906 726.415 153.141 727.06 152.519C727.658 151.922 728.399 151.922 729.164 152.137C731.818 152.83 733.205 154.815 733.42 158.235Z" fill="#04457A"/>
<path d="M391.093 190.784C391.045 191.86 391.261 193.008 391.428 193.988C391.739 195.758 390.95 196.212 389.635 196.404C388.057 196.619 387.435 195.567 387.22 194.251C387.124 193.725 387.339 193.127 387.316 192.577C387.156 189.835 388.256 188.863 390.615 189.66L390.567 189.612C390.065 190.353 390.472 190.64 391.165 190.808L391.093 190.76V190.784Z" fill="#04457A"/>
<path d="M1077.56 360.462C1077.61 360.007 1077.56 359.242 1077.78 358.549C1078.38 356.803 1080.05 356.54 1081.44 356.803C1082.68 357.042 1082.77 358.381 1082.39 359.553C1082.25 359.984 1082.2 360.462 1082.18 360.916C1082.03 362.686 1081.36 364.121 1079.33 363.953C1077.3 363.81 1077.66 362.088 1077.59 360.438L1077.56 360.462Z" fill="#04457A"/>
<path d="M1093.51 420.8C1093.53 421.47 1093.61 421.757 1093.56 422.02C1093.37 423.096 1094.23 424.865 1092.55 425.033C1090.71 425.224 1090.9 423.359 1090.79 422.187C1090.64 420.824 1090.5 419.413 1091.02 418.074C1091.26 417.476 1091.48 416.782 1092.34 416.83C1093.3 416.902 1093.51 417.595 1093.51 418.408C1093.51 419.341 1093.51 420.25 1093.51 420.8Z" fill="#04457A"/>
<path d="M760.987 163.927C760.724 165.027 760.58 166.773 759.146 166.462C757.687 166.151 756.492 164.716 756.348 162.97C756.229 161.464 757.377 160.507 758.548 160.579C760.27 160.698 760.843 162.253 761.011 163.903L760.987 163.927Z" fill="#04457A"/>
<path d="M509.585 218.549C508.15 219.625 510.015 222.376 507.839 222.686C506.237 222.926 505.233 220.917 505.018 219.362C504.827 217.975 505.711 216.803 507.289 216.708C508.389 216.636 509.226 217.234 509.585 218.549Z" fill="#04457A"/>
<path d="M741.738 172.226C743.842 172.393 745.611 173.086 746.113 175.382C746.305 176.243 745.707 176.746 744.799 176.793C743.89 176.841 739.539 174.067 739.61 173.469C739.754 172.154 740.782 172.226 741.762 172.226H741.738Z" fill="#04457A"/>
<path d="M1096.98 227.135C1097.05 228.02 1096.71 228.617 1096.09 228.426C1094.08 227.78 1092.31 230.507 1090.33 228.761C1090.19 228.641 1090.23 228.235 1090.33 227.972C1090.81 226.322 1095.25 225.222 1096.5 226.417C1096.76 226.656 1096.9 226.991 1097 227.135H1096.98Z" fill="#04457A"/>
<path d="M496.385 92.6119C495.476 92.4923 494.353 92.6119 494.042 91.4878C493.659 90.0768 494.95 90.1725 495.739 89.8138C495.907 89.742 496.098 89.6942 496.289 89.6464C497.509 89.2637 498.704 88.4506 499.947 89.6464C500.354 90.029 500.402 90.5073 500.091 90.89C499.158 92.0618 497.843 92.4923 496.409 92.6358L496.385 92.6119Z" fill="#04457A"/>
<path d="M255.362 159.837C257.227 160.172 257.777 161.751 258.351 163.162C258.566 163.712 257.753 164.597 257.132 164.238C255.888 163.52 253.569 164.62 253.378 162.205C253.282 160.89 254.191 160.268 255.362 159.837Z" fill="#04457A"/>
<path d="M1085.57 375.648C1085.62 376.533 1085.62 377.059 1085.12 377.274C1084.57 377.537 1083.95 377.466 1083.49 377.107C1082.65 376.437 1082.32 375.433 1081.96 374.476C1081.58 373.496 1081.03 372.3 1082.15 371.726C1083.61 370.985 1083.63 372.659 1084.16 373.4C1084.76 374.213 1085.24 375.122 1085.6 375.672L1085.57 375.648Z" fill="#04457A"/>
<path d="M521.203 77.9998C519.84 77.5215 519.84 76.0627 519.505 74.9626C519.242 74.1495 520.103 73.4081 521.035 73.3842C522.398 73.3603 523.02 74.3647 523.115 75.5366C523.211 76.7084 522.733 77.6889 521.226 77.9998H521.203Z" fill="#04457A"/>
<path d="M532.845 208.84C530.765 209.509 529.331 208.529 528.207 206.759C528.374 207.405 528.829 207.357 529.02 207.142C529.905 206.185 530.741 204.941 532.248 205.659C533.706 206.376 532.487 207.811 532.774 208.887L532.845 208.816V208.84Z" fill="#04457A"/>
<path d="M551.353 106.028C550.11 106.172 549.297 105.574 549.273 104.354C549.273 103.111 550.254 102.585 551.401 102.632C552.429 102.68 553.529 102.967 553.505 104.354C553.505 105.741 552.501 105.981 551.353 106.028Z" fill="#04457A"/>
<path d="M532.773 208.911C533.682 208.481 534.662 207.62 535.595 208.457C536.288 209.103 537.053 209.964 536.91 211.111C536.838 211.638 536.384 211.972 535.929 211.996C534.83 212.068 533.849 211.685 533.323 210.657C533.036 210.107 533.013 209.437 532.869 208.816L532.797 208.887L532.773 208.911Z" fill="#04457A"/>
<path d="M516.925 68.7445C516.447 69.7011 515.395 69.7968 514.439 69.8685C513.458 69.9164 512.406 69.5576 512.406 68.4336C512.406 67.0705 513.53 66.927 514.63 67.0226C515.682 67.1183 516.734 67.2618 516.925 68.7445Z" fill="#04457A"/>
<path d="M1080.41 351.231C1080.41 351.685 1080.41 352.044 1080.41 352.427C1080.33 353.311 1079.81 353.742 1078.95 353.837C1078.37 353.885 1077.78 353.909 1077.39 353.383C1076.89 352.666 1077.39 352.163 1077.82 351.661C1078.06 351.374 1078.33 351.087 1078.52 350.776C1078.95 350.155 1078.49 348.72 1079.71 348.935C1081.08 349.174 1080.07 350.537 1080.41 351.255V351.231Z" fill="#04457A"/>
<path d="M1084.33 498.189C1083.42 498.189 1082.92 497.592 1082.99 496.994C1083.13 495.607 1084 494.602 1085.38 494.243C1085.98 494.076 1086.7 494.506 1086.41 495.128C1085.86 496.228 1085.74 497.687 1084.33 498.189Z" fill="#04457A"/>
<path d="M482.995 222.854C481.776 222.663 481.561 221.778 481.489 220.821C481.417 219.912 481.633 219.051 482.708 218.932C483.952 218.788 484.358 219.625 484.334 220.678C484.334 221.634 484.119 222.519 482.995 222.83V222.854Z" fill="#04457A"/>
<path d="M494.162 64.2962C492.704 64.3919 492.154 63.9614 492.274 63.0287C492.441 61.7373 493.517 61.5938 494.569 61.4982C495.525 61.4025 496.123 62.0721 496.003 62.8135C495.836 64.0093 494.688 64.2006 494.162 64.2962Z" fill="#04457A"/>
<path d="M1088.37 385.43C1087.77 386.171 1088.37 387.869 1086.98 388.06C1085.81 388.228 1085.57 387.032 1085.62 386.028C1085.69 384.927 1086.1 383.923 1087.39 383.899C1088.18 383.875 1088.46 384.521 1088.34 385.43H1088.37Z" fill="#04457A"/>
<path d="M1079.09 377.489C1079.07 378.207 1078.52 378.685 1078.26 378.398C1077.13 377.107 1075.15 377.226 1074.14 375.863C1073.81 375.409 1073.5 374.811 1074.02 374.357C1074.79 373.711 1075.1 374.357 1075.48 374.954C1075.98 375.768 1076.61 376.318 1077.71 376.389C1078.21 376.413 1078.69 377.155 1079.12 377.513L1079.09 377.489Z" fill="#04457A"/>
<path d="M477.474 226.776C477.307 227.039 477.14 227.302 476.972 227.589C476.422 227.493 475.849 227.493 475.37 227.302C474.486 226.943 474.557 226.154 474.725 225.437C474.844 224.911 475.155 224.361 475.825 224.408C476.614 224.456 476.805 225.102 476.901 225.772C476.948 226.178 476.805 226.728 477.474 226.8V226.776Z" fill="#04457A"/>
<path d="M498.587 73.7908C498.731 74.6517 498.42 75.2257 497.822 75.2257C496.77 75.2257 496.124 74.5082 495.838 73.5516C495.598 72.7863 496.005 72.2363 496.818 72.1885C498.013 72.1406 498.3 73.1211 498.611 73.7669L498.587 73.7908Z" fill="#04457A"/>
<path d="M955.915 299.55C955.772 300.339 955.772 301.511 954.672 301.248C953.739 301.033 953.572 299.885 953.596 298.928C953.596 298.067 954.002 297.445 954.935 297.565C956.13 297.732 955.891 298.713 955.915 299.526V299.55Z" fill="#04457A"/>
<path d="M541.502 209.127C541.359 209.988 540.905 210.514 539.996 210.514C539.159 210.514 538.777 209.988 538.896 209.246C539.016 208.481 539.446 207.787 540.355 207.811C541.12 207.835 541.455 208.409 541.479 209.127H541.502Z" fill="#04457A"/>
<path d="M1089.49 398.343C1090.35 398.391 1091.16 398.511 1091.12 399.3C1091.07 400.185 1090.21 400.376 1089.42 400.4C1088.75 400.448 1087.98 400.4 1087.98 399.491C1087.98 398.463 1089.06 398.678 1089.49 398.319V398.343Z" fill="#04457A"/>
<path d="M1091.33 405.398C1091.33 405.972 1091.33 406.642 1090.54 406.594C1089.52 406.499 1089.28 405.59 1089.09 404.801C1088.94 404.155 1089.37 403.605 1089.97 403.629C1091.02 403.677 1091.29 404.514 1091.33 405.422V405.398Z" fill="#04457A"/>
<path d="M1079.19 373.902C1079.07 374.476 1078.85 375.146 1078.16 374.931C1077.37 374.691 1077.13 373.878 1077.08 373.137C1077.03 372.563 1077.37 371.941 1078.04 372.109C1078.85 372.324 1078.95 373.185 1079.19 373.902Z" fill="#04457A"/>
<circle cx="240" cy="376" r="5" fill="white"/>
<circle cx="573.426" cy="305.5" r="3" fill="white"/>
<circle cx="508" cy="476.797" r="3" fill="white"/>
<circle cx="302" cy="242" r="3" fill="white"/>
<circle cx="106" cy="309" r="3" fill="white"/>
<circle cx="79" cy="375" r="3" fill="white"/>
<circle cx="444" cy="383" r="3" fill="white"/>
<circle cx="718" cy="486" r="3" fill="white"/>
<circle cx="822" cy="376" r="3" fill="white"/>
<path d="M243 373C285.333 345.667 410.8 294.2 574 307" stroke="#E9EFF4" stroke-width="0.5"/>
<path d="M242 377C243 345 256.4 273.2 302 242" stroke="#E9EFF4" stroke-width="0.5"/>
<path d="M238 376C291.667 382 420.8 410.6 508 477" stroke="#E9EFF4" stroke-width="0.5"/>
<path d="M239 377C268.333 367 350.4 354.2 444 383" stroke="#E9EFF4" stroke-width="0.5"/>
<path d="M240 376C308 372 498.8 388.4 718 486" stroke="#E9EFF4" stroke-width="0.5"/>
<path d="M241 379C239.333 371.667 227 352.4 191 334C155 315.6 119.333 309.667 106 309" stroke="#E9EFF4" stroke-width="0.5"/>
<path d="M238 375C204.333 363 125.4 346.2 79 375" stroke="#E9EFF4" stroke-width="0.5"/>
<path d="M241 376C241.409 356.333 535 298 822 376" stroke="#E9EFF4" stroke-width="0.5"/>
<g filter="url(#filter1_d_138_8702)">
<path d="M213.688 362L210.688 357.994H209.614V362H208.557V353.273H209.614V357.057H210.074L213.568 353.273H214.83L211.301 357.108L214.949 362H213.688ZM216.178 364.455V355.455H217.15V356.494H217.269C217.343 356.381 217.445 356.236 217.576 356.06C217.71 355.881 217.9 355.722 218.147 355.582C218.397 355.44 218.735 355.369 219.161 355.369C219.712 355.369 220.198 355.507 220.619 355.783C221.039 356.058 221.367 356.449 221.603 356.955C221.839 357.46 221.957 358.057 221.957 358.744C221.957 359.438 221.839 360.038 221.603 360.547C221.367 361.053 221.04 361.445 220.623 361.723C220.205 361.999 219.724 362.136 219.178 362.136C218.758 362.136 218.421 362.067 218.168 361.928C217.915 361.786 217.721 361.625 217.585 361.446C217.448 361.264 217.343 361.114 217.269 360.994H217.184V364.455H216.178ZM217.167 358.727C217.167 359.222 217.239 359.658 217.384 360.036C217.529 360.411 217.741 360.705 218.019 360.918C218.298 361.128 218.638 361.233 219.042 361.233C219.462 361.233 219.813 361.122 220.094 360.901C220.379 360.676 220.592 360.375 220.734 359.997C220.879 359.616 220.951 359.193 220.951 358.727C220.951 358.267 220.88 357.852 220.738 357.483C220.599 357.111 220.387 356.817 220.103 356.601C219.822 356.382 219.468 356.273 219.042 356.273C218.633 356.273 218.289 356.376 218.011 356.584C217.732 356.788 217.522 357.075 217.38 357.445C217.238 357.811 217.167 358.239 217.167 358.727ZM225.417 362.153C225.002 362.153 224.626 362.075 224.288 361.919C223.95 361.76 223.681 361.531 223.482 361.233C223.283 360.932 223.184 360.568 223.184 360.142C223.184 359.767 223.258 359.463 223.406 359.23C223.553 358.994 223.751 358.81 223.998 358.676C224.245 358.543 224.518 358.443 224.816 358.378C225.117 358.31 225.42 358.256 225.724 358.216C226.121 358.165 226.444 358.126 226.691 358.101C226.941 358.072 227.123 358.026 227.237 357.96C227.353 357.895 227.411 357.781 227.411 357.619V357.585C227.411 357.165 227.296 356.838 227.066 356.605C226.839 356.372 226.494 356.256 226.031 356.256C225.55 356.256 225.174 356.361 224.901 356.571C224.629 356.781 224.437 357.006 224.326 357.244L223.371 356.903C223.542 356.506 223.769 356.196 224.053 355.974C224.34 355.75 224.653 355.594 224.991 355.506C225.332 355.415 225.667 355.369 225.996 355.369C226.207 355.369 226.448 355.395 226.721 355.446C226.996 355.494 227.262 355.595 227.518 355.749C227.776 355.902 227.991 356.134 228.161 356.443C228.332 356.753 228.417 357.168 228.417 357.688V362H227.411V361.114H227.36C227.292 361.256 227.178 361.408 227.019 361.57C226.86 361.732 226.648 361.869 226.384 361.983C226.12 362.097 225.798 362.153 225.417 362.153ZM225.57 361.25C225.968 361.25 226.303 361.172 226.576 361.016C226.852 360.859 227.059 360.658 227.198 360.411C227.34 360.163 227.411 359.903 227.411 359.631V358.71C227.369 358.761 227.275 358.808 227.13 358.851C226.988 358.891 226.823 358.926 226.636 358.957C226.451 358.986 226.271 359.011 226.094 359.034C225.921 359.054 225.781 359.071 225.673 359.085C225.411 359.119 225.167 359.175 224.94 359.251C224.715 359.325 224.533 359.437 224.394 359.588C224.258 359.736 224.19 359.937 224.19 360.193C224.19 360.543 224.319 360.807 224.577 360.986C224.839 361.162 225.17 361.25 225.57 361.25ZM232.912 362.136C232.298 362.136 231.77 361.991 231.326 361.702C230.883 361.412 230.542 361.013 230.304 360.504C230.065 359.996 229.946 359.415 229.946 358.761C229.946 358.097 230.068 357.51 230.312 357.001C230.559 356.49 230.903 356.091 231.343 355.804C231.787 355.514 232.304 355.369 232.895 355.369C233.355 355.369 233.77 355.455 234.139 355.625C234.508 355.795 234.811 356.034 235.047 356.341C235.282 356.648 235.429 357.006 235.485 357.415H234.48C234.403 357.116 234.233 356.852 233.968 356.622C233.707 356.389 233.355 356.273 232.912 356.273C232.52 356.273 232.176 356.375 231.88 356.58C231.588 356.781 231.359 357.067 231.194 357.436C231.032 357.803 230.951 358.233 230.951 358.727C230.951 359.233 231.031 359.673 231.19 360.048C231.352 360.423 231.579 360.714 231.872 360.922C232.167 361.129 232.514 361.233 232.912 361.233C233.173 361.233 233.41 361.188 233.623 361.097C233.836 361.006 234.017 360.875 234.164 360.705C234.312 360.534 234.417 360.33 234.48 360.091H235.485C235.429 360.477 235.288 360.825 235.064 361.135C234.842 361.442 234.548 361.686 234.181 361.868C233.818 362.047 233.395 362.136 232.912 362.136ZM241.336 358.267V359.205H237.723V358.267H241.336ZM237.961 355.455V362H236.956V355.455H237.961ZM242.103 355.455V362H241.098V355.455H242.103ZM246.599 362.136C246.008 362.136 245.49 361.996 245.044 361.714C244.6 361.433 244.254 361.04 244.004 360.534C243.757 360.028 243.633 359.437 243.633 358.761C243.633 358.08 243.757 357.484 244.004 356.976C244.254 356.467 244.6 356.072 245.044 355.791C245.49 355.51 246.008 355.369 246.599 355.369C247.19 355.369 247.707 355.51 248.15 355.791C248.596 356.072 248.943 356.467 249.19 356.976C249.44 357.484 249.565 358.08 249.565 358.761C249.565 359.437 249.44 360.028 249.19 360.534C248.943 361.04 248.596 361.433 248.15 361.714C247.707 361.996 247.19 362.136 246.599 362.136ZM246.599 361.233C247.048 361.233 247.417 361.118 247.707 360.888C247.997 360.658 248.211 360.355 248.35 359.98C248.49 359.605 248.559 359.199 248.559 358.761C248.559 358.324 248.49 357.916 248.35 357.538C248.211 357.161 247.997 356.855 247.707 356.622C247.417 356.389 247.048 356.273 246.599 356.273C246.15 356.273 245.781 356.389 245.491 356.622C245.201 356.855 244.987 357.161 244.848 357.538C244.708 357.916 244.639 358.324 244.639 358.761C244.639 359.199 244.708 359.605 244.848 359.98C244.987 360.355 245.201 360.658 245.491 360.888C245.781 361.118 246.15 361.233 246.599 361.233ZM250.401 363.875V361.062H250.947C251.08 360.923 251.195 360.773 251.292 360.611C251.388 360.449 251.472 360.257 251.543 360.036C251.617 359.811 251.68 359.538 251.731 359.217C251.782 358.893 251.827 358.503 251.867 358.045L252.089 355.455H256.248V361.062H257.254V363.875H256.248V362H251.407V363.875H250.401ZM252.089 361.062H255.242V356.392H253.026L252.856 358.045C252.785 358.73 252.697 359.328 252.592 359.839C252.487 360.351 252.319 360.759 252.089 361.062ZM260.515 362.153C260.1 362.153 259.723 362.075 259.385 361.919C259.047 361.76 258.779 361.531 258.58 361.233C258.381 360.932 258.282 360.568 258.282 360.142C258.282 359.767 258.355 359.463 258.503 359.23C258.651 358.994 258.848 358.81 259.096 358.676C259.343 358.543 259.615 358.443 259.914 358.378C260.215 358.31 260.517 358.256 260.821 358.216C261.219 358.165 261.542 358.126 261.789 358.101C262.039 358.072 262.221 358.026 262.334 357.96C262.451 357.895 262.509 357.781 262.509 357.619V357.585C262.509 357.165 262.394 356.838 262.164 356.605C261.936 356.372 261.591 356.256 261.128 356.256C260.648 356.256 260.272 356.361 259.999 356.571C259.726 356.781 259.534 357.006 259.424 357.244L258.469 356.903C258.64 356.506 258.867 356.196 259.151 355.974C259.438 355.75 259.75 355.594 260.088 355.506C260.429 355.415 260.765 355.369 261.094 355.369C261.304 355.369 261.546 355.395 261.819 355.446C262.094 355.494 262.36 355.595 262.615 355.749C262.874 355.902 263.088 356.134 263.259 356.443C263.429 356.753 263.515 357.168 263.515 357.688V362H262.509V361.114H262.458C262.39 361.256 262.276 361.408 262.117 361.57C261.958 361.732 261.746 361.869 261.482 361.983C261.218 362.097 260.895 362.153 260.515 362.153ZM260.668 361.25C261.066 361.25 261.401 361.172 261.674 361.016C261.949 360.859 262.157 360.658 262.296 360.411C262.438 360.163 262.509 359.903 262.509 359.631V358.71C262.466 358.761 262.373 358.808 262.228 358.851C262.086 358.891 261.921 358.926 261.733 358.957C261.549 358.986 261.368 359.011 261.192 359.034C261.019 359.054 260.878 359.071 260.77 359.085C260.509 359.119 260.265 359.175 260.037 359.251C259.813 359.325 259.631 359.437 259.492 359.588C259.355 359.736 259.287 359.937 259.287 360.193C259.287 360.543 259.417 360.807 259.675 360.986C259.936 361.162 260.267 361.25 260.668 361.25ZM265.35 364.455V355.455H266.322V356.494H266.441C266.515 356.381 266.617 356.236 266.748 356.06C266.881 355.881 267.072 355.722 267.319 355.582C267.569 355.44 267.907 355.369 268.333 355.369C268.884 355.369 269.37 355.507 269.79 355.783C270.211 356.058 270.539 356.449 270.775 356.955C271.011 357.46 271.129 358.057 271.129 358.744C271.129 359.438 271.011 360.038 270.775 360.547C270.539 361.053 270.212 361.445 269.795 361.723C269.377 361.999 268.896 362.136 268.35 362.136C267.93 362.136 267.593 362.067 267.34 361.928C267.087 361.786 266.893 361.625 266.756 361.446C266.62 361.264 266.515 361.114 266.441 360.994H266.356V364.455H265.35ZM266.339 358.727C266.339 359.222 266.411 359.658 266.556 360.036C266.701 360.411 266.913 360.705 267.191 360.918C267.469 361.128 267.81 361.233 268.214 361.233C268.634 361.233 268.985 361.122 269.266 360.901C269.55 360.676 269.763 360.375 269.906 359.997C270.05 359.616 270.123 359.193 270.123 358.727C270.123 358.267 270.052 357.852 269.91 357.483C269.771 357.111 269.559 356.817 269.275 356.601C268.994 356.382 268.64 356.273 268.214 356.273C267.805 356.273 267.461 356.376 267.183 356.584C266.904 356.788 266.694 357.075 266.552 357.445C266.41 357.811 266.339 358.239 266.339 358.727Z" fill="white"/>
</g>
</g>
<defs>
<filter id="filter0_d_138_8702" x="0" y="0" width="1105" height="625" filterUnits="userSpaceOnUse" color-interpolation-filters="sRGB">
<feFlood flood-opacity="0" result="BackgroundImageFix"/>
<feColorMatrix in="SourceAlpha" type="matrix" values="0 0 0 0 0 0 0 0 0 0 0 0 0 0 0 0 0 0 127 0" result="hardAlpha"/>
<feOffset/>
<feGaussianBlur stdDeviation="4"/>
<feComposite in2="hardAlpha" operator="out"/>
<feColorMatrix type="matrix" values="0 0 0 0 0.137255 0 0 0 0 0.145098 0 0 0 0 0.14902 0 0 0 0.24 0"/>
<feBlend mode="normal" in2="BackgroundImageFix" result="effect1_dropShadow_138_8702"/>
<feBlend mode="normal" in="SourceGraphic" in2="effect1_dropShadow_138_8702" result="shape"/>
</filter>
<filter id="filter1_d_138_8702" x="191.059" y="338.773" width="97.5703" height="46.1819" filterUnits="userSpaceOnUse" color-interpolation-filters="sRGB">
<feFlood flood-opacity="0" result="BackgroundImageFix"/>
<feColorMatrix in="SourceAlpha" type="matrix" values="0 0 0 0 0 0 0 0 0 0 0 0 0 0 0 0 0 0 127 0" result="hardAlpha"/>
<feOffset dy="3"/>
<feGaussianBlur stdDeviation="8.75"/>
<feComposite in2="hardAlpha" operator="out"/>
<feColorMatrix type="matrix" values="0 0 0 0 0 0 0 0 0 0 0 0 0 0 0 0 0 0 0.4 0"/>
<feBlend mode="normal" in2="BackgroundImageFix" result="effect1_dropShadow_138_8702"/>
<feBlend mode="normal" in="SourceGraphic" in2="effect1_dropShadow_138_8702" result="shape"/>
</filter>
<clipPath id="clip0_138_8702">
<rect width="1089" height="609" fill="white" transform="translate(8 8)"/>
</clipPath>
</defs>
</svg>
