<svg width="147" height="56" viewBox="0 0 147 56" fill="none" xmlns="http://www.w3.org/2000/svg">
<path d="M62.3285 15.2693V26.9894H63.8443L69.4073 17.8997L69.4419 26.9894H71.6271V15.2693H70.0228L64.5483 24.1651L64.5137 15.2693H62.3323H62.3285ZM75.3819 26.9894H73.7815V19.176H75.3819V22.462H78.3212V19.176H79.9216V26.9894H78.3212V23.2263H75.3819V26.9894ZM87.185 26.9894H85.5654V23.3659L82.9609 26.9894H80.7949L84.0342 22.5861L81.3566 19.1605H82.4146L85.5308 23.1719L85.5654 19.1605H87.185V23.1719L90.3359 19.1605H91.3938L88.7162 22.5861L91.9555 26.9894H89.7896L87.2197 23.3659L87.185 26.9894ZM97.8263 19.176V19.7424H94.7447C94.6139 19.7424 94.5177 19.7696 94.4562 19.8239C94.3908 19.8782 94.36 19.9752 94.36 20.1149V22.5667H97.2108V23.1331H94.36V25.8682C94.36 26.2368 94.5639 26.4191 94.9756 26.4191H98.0379V26.9855H93.9714C93.5713 26.9855 93.2674 26.8808 93.0558 26.6674C92.8442 26.454 92.7403 26.1049 92.7403 25.6199V20.7744C92.7403 20.1343 92.8596 19.7075 93.0943 19.4941C93.329 19.2808 93.6829 19.176 94.1523 19.176H97.8302H97.8263ZM100.723 26.9894H99.1228V19.176H100.723V22.462H103.662V19.176H105.263V26.9894H103.662V23.2263H100.723V26.9894ZM112.245 19.176V19.7424H109.164C109.033 19.7424 108.937 19.7696 108.872 19.8239C108.806 19.8782 108.775 19.9752 108.775 20.1149V22.5667H111.626V23.1331H108.775V25.8682C108.775 26.2368 108.979 26.4191 109.391 26.4191H112.453V26.9855H108.387C107.987 26.9855 107.683 26.8808 107.471 26.6674C107.26 26.454 107.156 26.1049 107.156 25.6199V20.7744C107.156 20.1343 107.275 19.7075 107.51 19.4941C107.744 19.2808 108.098 19.176 108.568 19.176H112.245ZM115.104 19.7424V26.4191H116.247C117.008 26.4191 117.578 26.1514 117.955 25.6122C118.332 25.0729 118.516 24.3474 118.516 23.4357C118.516 22.4077 118.362 21.6124 118.059 21.0576C117.578 20.1808 116.739 19.7424 115.543 19.7424H115.104ZM115.104 30.5741H113.484V19.176H116.089C117.343 19.176 118.378 19.5446 119.186 20.2778C119.998 21.011 120.401 21.946 120.401 23.0827C120.401 24.3358 120.067 25.3018 119.397 25.9768C118.728 26.6519 117.824 26.9894 116.685 26.9894H115.1V30.5779L115.104 30.5741ZM123.175 26.9855H121.575V19.1721H123.175V22.4581H126.115V19.1721H127.715V26.9855H126.115V23.2224H123.175V26.9855ZM131.351 23.1331V26.4191H132.035C132.705 26.4191 133.216 26.2833 133.566 26.0117C133.92 25.7402 134.094 25.3328 134.094 24.7858C134.094 24.1923 133.913 23.7694 133.547 23.5172C133.182 23.2612 132.685 23.137 132.051 23.137H131.347L131.351 23.1331ZM129.75 26.9855V19.1721H131.351V22.5629H132.882C133.751 22.5629 134.44 22.7685 134.951 23.1758C135.463 23.5832 135.717 24.1185 135.717 24.7819C135.717 25.4919 135.455 26.035 134.932 26.4152C134.409 26.7954 133.74 26.9816 132.916 26.9816H129.746L129.75 26.9855ZM138.626 26.9855H137.006V19.1721H138.626V26.9855ZM145.727 19.1721V19.7386H142.646C142.515 19.7386 142.419 19.7657 142.357 19.82C142.292 19.8743 142.261 19.9713 142.261 20.111V22.5629H145.112V23.1293H142.261V25.8643C142.261 26.2329 142.465 26.4152 142.877 26.4152H145.939V26.9816H141.873C141.472 26.9816 141.168 26.8769 140.957 26.6635C140.745 26.4501 140.641 26.101 140.641 25.616V20.7705C140.641 20.1304 140.761 19.7036 140.995 19.4903C141.23 19.2769 141.584 19.1721 142.053 19.1721H145.731H145.727Z" fill="white"/>
<path d="M68.2993 34.2169L67.6299 34.5544C67.4068 34.0928 67.1182 33.732 66.7681 33.472C66.4142 33.2121 66.0064 33.0802 65.537 33.0802C64.7638 33.0802 64.1828 33.4488 63.7943 34.182C63.4673 34.7988 63.3018 35.567 63.3018 36.4903C63.3018 37.4951 63.4442 38.3021 63.725 38.9034C64.1136 39.7336 64.7445 40.1448 65.6255 40.1448C66.141 40.1448 66.595 39.9664 66.9797 39.6133C67.2029 39.4116 67.4914 39.0392 67.8415 38.496L68.4224 38.7443C68.0954 39.3612 67.7107 39.8228 67.276 40.1293C66.7143 40.5328 66.0256 40.7345 65.2177 40.7345C64.1136 40.7345 63.2056 40.3504 62.4901 39.5823C61.7745 38.8142 61.4167 37.8171 61.4167 36.5989C61.4167 35.4739 61.7668 34.5234 62.4747 33.7397C63.2249 32.9095 64.1713 32.4983 65.31 32.4983C66.0025 32.4983 66.6027 32.6651 67.1067 32.9949C67.4837 33.2432 67.88 33.6505 68.3031 34.2208L68.2993 34.2169ZM75.9321 40.5017H74.3317V35.0161C74.3317 34.8609 74.2855 34.7872 74.1893 34.7872C74.1316 34.7872 74.0585 34.8454 73.9777 34.9657C73.8969 35.0821 73.7507 35.3342 73.5391 35.7105L71.3732 39.2254C71.1616 39.5823 70.95 39.9353 70.7384 40.2923C70.5499 40.5638 70.3498 40.6996 70.1382 40.6996C69.7497 40.6996 69.5573 40.4436 69.5573 39.9353V32.6923H71.1577V37.6115C71.1577 37.7318 71.2039 37.79 71.3001 37.79C71.3693 37.79 71.4924 37.6464 71.6694 37.3555C71.8464 37.0645 71.9618 36.8744 72.0234 36.7774L73.6776 34.0617C74.0431 33.4914 74.2393 33.185 74.2778 33.1384C74.524 32.8436 74.7818 32.6961 75.0511 32.6961C75.6397 32.6961 75.9321 33.0259 75.9321 33.6893V40.5056V40.5017ZM84.0919 34.2169L83.4225 34.5544C83.1994 34.0928 82.9108 33.732 82.5607 33.472C82.2107 33.2121 81.799 33.0802 81.3297 33.0802C80.5564 33.0802 79.9755 33.4488 79.5869 34.182C79.2599 34.7988 79.0945 35.567 79.0945 36.4903C79.0945 37.4951 79.2368 38.3021 79.5176 38.9034C79.9062 39.7336 80.5371 40.1448 81.4181 40.1448C81.9337 40.1448 82.3876 39.9664 82.7723 39.6133C82.9955 39.4116 83.284 39.0392 83.6341 38.496L84.215 38.7443C83.888 39.3612 83.5033 39.8228 83.0724 40.1293C82.5107 40.5328 81.8221 40.7345 81.0142 40.7345C79.9101 40.7345 79.0021 40.3504 78.2865 39.5823C77.571 38.8142 77.2132 37.8171 77.2132 36.5989C77.2132 35.4739 77.5671 34.5234 78.2712 33.7397C79.0214 32.9095 79.9678 32.4983 81.1065 32.4983C81.799 32.4983 82.3992 32.6651 82.9032 32.9949C83.2802 33.2432 83.6764 33.6505 84.0996 34.2208L84.0919 34.2169ZM84.3651 33.2587V32.6923H89.1548V33.2587H87.5698V40.5017H85.9501V33.2587H84.3651ZM95.2179 32.6923V33.2587H92.1364C92.0055 33.2587 91.9094 33.2858 91.8478 33.3401C91.7824 33.3945 91.7516 33.4914 91.7516 33.6311V36.083H94.6024V36.6494H91.7516V39.3844C91.7516 39.753 91.9555 39.9353 92.3672 39.9353H95.4295V40.5017H91.3631C90.963 40.5017 90.659 40.397 90.4474 40.1836C90.2358 39.9703 90.132 39.6211 90.132 39.1362V34.2906C90.132 33.6505 90.2474 33.2238 90.4859 33.0104C90.7206 32.797 91.0745 32.6923 91.5439 32.6923H95.2218H95.2179ZM97.3377 40.5056H96.5106V33.988C96.5106 33.4914 96.6029 33.119 96.7837 32.8707C96.9645 32.6224 97.2839 32.4983 97.7417 32.4983C98.1995 32.4983 98.515 32.6418 98.7265 32.925C98.8573 33.0919 99.0035 33.441 99.1651 33.9725L100.258 37.4175L101.366 33.7436C101.47 33.3751 101.639 33.0763 101.866 32.8474C102.093 32.6147 102.362 32.5022 102.666 32.5022C103.616 32.5022 104.093 33.0065 104.093 34.0113V40.5095H102.578V34.0811C102.578 33.8561 102.489 33.7436 102.312 33.7436C102.204 33.7436 102.031 34.2286 101.785 35.1984L100.481 39.8151C100.389 40.1565 100.308 40.3698 100.242 40.4436C100.177 40.5211 100.058 40.5599 99.8807 40.5599C99.7153 40.5599 99.5999 40.5056 99.5383 40.3931C99.4729 40.2806 99.4075 40.0983 99.3344 39.85L97.6801 34.2441C97.5993 33.9104 97.5108 33.7436 97.4147 33.7436C97.357 33.7436 97.3262 33.8988 97.3262 34.2092V40.5095L97.3377 40.5056ZM107.733 36.6533V39.9392H108.418C109.087 39.9392 109.599 39.8034 109.949 39.5319C110.303 39.2603 110.476 38.8529 110.476 38.3059C110.476 37.7124 110.295 37.2895 109.93 37.0373C109.564 36.7813 109.068 36.6571 108.433 36.6571H107.729L107.733 36.6533ZM106.132 40.5056V32.6923H107.733V36.083H109.264C110.133 36.083 110.822 36.2886 111.334 36.6959C111.845 37.1033 112.099 37.6387 112.099 38.3021C112.099 39.012 111.838 39.5551 111.314 39.9353C110.791 40.3155 110.122 40.5017 109.299 40.5017H106.128L106.132 40.5056ZM115.008 40.5056H113.388V32.6923H115.008V40.5056ZM123.714 35.9782H125.122C125.253 34.923 125.664 34.0811 126.365 33.4488C127.065 32.8164 127.988 32.4983 129.138 32.4983C130.196 32.4983 131.135 32.9134 131.955 33.7397C132.778 34.57 133.186 35.5282 133.186 36.6145C133.186 37.821 132.832 38.7986 132.128 39.5435C131.377 40.3349 130.377 40.7345 129.135 40.7345C128.088 40.7345 127.153 40.3349 126.326 39.5357C125.499 38.7366 125.083 37.8055 125.083 36.7386H123.71V40.5017H122.09V32.6884H123.71V35.9743L123.714 35.9782ZM129.138 33.0841C128.565 33.0841 128.069 33.3906 127.661 34.0074C127.215 34.6708 126.992 35.5398 126.992 36.6183C126.992 37.6968 127.215 38.5542 127.661 39.2293C128.073 39.8461 128.565 40.1526 129.138 40.1526C129.712 40.1526 130.216 39.8345 130.643 39.1943C131.07 38.5542 131.285 37.6968 131.285 36.6183C131.285 35.5398 131.07 34.698 130.643 34.054C130.216 33.41 129.712 33.088 129.138 33.088V33.0841ZM139.43 32.6923V33.2587H136.348C136.217 33.2587 136.121 33.2858 136.056 33.3401C135.99 33.3945 135.959 33.4914 135.959 33.6311V40.5017H134.34V34.2867C134.34 33.6466 134.459 33.2199 134.694 33.0065C134.928 32.7931 135.282 32.6884 135.752 32.6884H139.43V32.6923ZM140.318 40.5056H139.56L141.372 33.8484C141.515 33.3983 141.676 33.0725 141.865 32.8707C142.1 32.6224 142.434 32.4983 142.869 32.4983C143.338 32.4983 143.692 32.6651 143.927 32.9949C144.058 33.185 144.219 33.5884 144.419 34.2014L146.27 40.5056H144.562L143.877 38.143H140.972L140.322 40.5056H140.318ZM141.18 37.3826H143.661L142.78 34.3449C142.734 34.1665 142.692 33.9841 142.657 33.7941C142.611 33.6621 142.527 33.6001 142.411 33.6001C142.28 33.6001 142.192 33.7009 142.138 33.9027C142.084 34.1044 142.046 34.2596 142.023 34.3643L141.176 37.3826H141.18Z" fill="white"/>
<mask id="mask0_2001_508" style="mask-type:luminance" maskUnits="userSpaceOnUse" x="0" y="0" width="55" height="56">
<path d="M34.4481 43.3726C33.0708 50.6894 30.7394 55.5 28.0964 55.5C25.3803 55.5 22.9951 50.4217 21.6332 42.7674C15.3046 47.2095 10.0532 49.0988 8.13345 47.1629C6.28681 45.3007 7.94879 40.3272 12.0037 34.2712C12.1922 34.7562 12.4077 35.2295 12.6385 35.6912C11.6805 37.627 11.4228 39.0586 12.046 39.6871C12.9963 40.6453 15.7932 39.5319 19.4057 37.0141C21.4716 35.5709 21.1292 34.9773 18.7863 34.7523C8.01034 33.7165 0.258301 30.8301 0.258301 27.4316C0.258301 24.7975 4.92107 22.4697 12.0345 21.0731C11.8306 21.5503 11.6459 22.0391 11.4882 22.5279C9.45303 23.2146 8.2681 24.0409 8.2681 24.9294C8.2681 26.423 11.6305 27.742 16.7396 28.5218C19.498 28.9408 18.49 28.5877 17.055 26.8458C10.057 18.3613 6.52534 10.6915 8.92982 8.27068C10.7688 6.41627 15.6624 8.06895 21.6332 12.1153C21.1407 12.3054 20.6598 12.5188 20.1943 12.7554C18.3323 11.836 16.9589 11.5993 16.3472 12.2123C15.3161 13.252 16.7011 16.4798 19.6596 20.5727C20.9522 22.3611 20.6175 21.7288 20.7752 19.8899C21.737 8.66252 24.6493 0.5 28.0926 0.5C30.6471 0.5 32.9131 4.99637 34.3057 11.9058C40.1342 8.01464 44.8893 6.44731 46.6975 8.27068C49.1712 10.7652 45.3471 18.8385 37.9221 27.6295C36.6448 29.1386 37.1873 28.708 38.8454 28.4364C43.662 27.6489 46.7936 26.3687 46.7936 24.9294C46.7936 24.0409 45.6087 23.2146 43.5736 22.5279C43.4158 22.0352 43.2312 21.5503 43.0273 21.0731C50.1407 22.4659 54.8034 24.7975 54.8034 27.4316C54.8034 30.9581 46.4628 33.9337 35.0713 34.8571C33.3247 35.0006 33.2978 34.8338 34.752 35.9356C39.0685 39.1982 42.5156 40.7694 43.5928 39.6832C44.2391 39.0314 43.9352 37.5145 42.8849 35.4623C43.1081 35.0045 43.3081 34.5351 43.4889 34.054C47.6439 40.2069 49.3712 45.2736 47.5015 47.159C45.0586 49.6225 37.2373 45.8982 28.6542 38.6047C27.1615 37.3361 26.9538 38.5892 27.2116 40.0517C28.0002 44.5403 29.2159 47.419 30.5817 47.419C31.4973 47.419 32.3437 46.1271 33.04 43.9313C33.5171 43.7644 33.9903 43.5782 34.4558 43.3687L34.4481 43.3726ZM32.9131 11.7002C32.2398 9.72163 31.4357 8.57329 30.574 8.57329C28.3657 8.57329 26.546 16.0918 26.3036 25.7673C26.219 29.158 27.2462 30.5624 29.9084 27.7692C36.7218 20.6231 40.869 13.8106 39.2801 12.2123C38.6569 11.5838 37.2411 11.8476 35.3175 12.8136C34.3981 12.3442 33.8364 12.0183 32.9092 11.7041L32.9131 11.7002Z" fill="white"/>
</mask>
<g mask="url(#mask0_2001_508)">
<mask id="mask1_2001_508" style="mask-type:luminance" maskUnits="userSpaceOnUse" x="0" y="0" width="55" height="56">
<path d="M54.7996 0.5H0.258301V55.5H54.7996V0.5Z" fill="white"/>
</mask>
<g mask="url(#mask1_2001_508)">
<rect width="55.3992" height="55.8651" transform="matrix(1 0 0 -1 -0.222595 56.0237)" fill="white"/>
</g>
</g>
</svg>
