<svg width="127" height="22" viewBox="0 0 127 22" fill="none" xmlns="http://www.w3.org/2000/svg">
<g clip-path="url(#clip0_2001_421)">
<path d="M2.16754 11.2786C1.48156 9.30958 2.19041 4.6076 6.85692 4.17798C7.50656 4.08958 8.24833 4.17752 9.03035 4.45132C9.85106 3.55385 10.8718 1.95829 13.6625 2.86526C13.2728 2.34504 12.842 1.90104 12.3806 1.52896C6.54502 -3.17734 -4.17301 3.62183 1.71036 13.1881C1.72325 12.375 1.87698 11.9659 2.16754 11.2786Z" fill="#242527"/>
<path d="M9.03078 4.45096C8.24876 4.17716 7.50699 4.08922 6.85736 4.17762C5.16819 5.24579 3.02555 9.24981 2.16797 11.2783C2.37585 11.875 3.42641 14.3214 5.77108 14.6795C5.08358 11.8274 7.10608 7.61505 9.03078 4.45096Z" fill="#242527"/>
<path d="M6.62882 16.7669C6.23663 16.0823 5.93355 15.3529 5.77098 14.6785C3.42631 14.3205 2.37575 11.8741 2.16787 11.2773C1.87731 11.9646 1.72358 12.3737 1.7107 13.1868C1.53858 24.0469 14.4057 24.3452 16.6932 16.9462C16.2929 17.1849 15.3994 17.4236 15.0086 17.4236C12.9147 19.7991 8.59011 20.1908 6.62882 16.7669Z" fill="#242527"/>
<path d="M5.77063 14.6796C5.9332 15.3539 6.23628 16.0834 6.62847 16.768C10.1893 17.8748 13.1473 17.723 15.0082 17.4246C16.0891 16.1984 16.5755 14.4436 15.8356 12.4121C12.4044 15.0973 9.54501 14.7393 5.77063 14.6796Z" fill="#242527"/>
<path d="M13.6628 2.86615C17.1512 3.99987 18.6952 6.86401 17.2084 10.6232C16.9796 11.0806 16.3849 12.0791 15.8359 12.4132C16.5757 14.4447 16.0893 16.1995 15.0085 17.4258C15.3993 17.4258 16.2928 17.1871 16.6932 16.9484C26.3006 11.1008 19.8425 0.275887 12.3809 1.52985C12.8422 1.90193 13.273 2.34593 13.6628 2.86615Z" fill="#242527"/>
<path d="M9.03027 4.45171C11.4151 5.28672 14.1739 7.85032 15.8355 12.4127C16.3845 12.0786 16.9793 11.0801 17.2081 10.6227C16.6362 8.23593 15.2065 4.71542 13.6624 2.86566C10.8717 1.95868 9.85098 3.55424 9.03027 4.45171Z" fill="#242527"/>
<path d="M29.1885 16.4993V5.56528H30.8761V14.9747H36.6169V16.4993H29.1885ZM45.3259 14.9747V16.4993H37.9879V5.56528H45.1903V7.08988H39.6754V10.2007H44.4519V11.6329H39.6754V14.9747H45.3259ZM50.1557 5.56528H51.7529L55.9118 16.4993H54.1338L53.0035 13.5271H48.8749L47.7599 16.4993H45.9668L50.1557 5.56528ZM52.672 12.2489L50.9543 7.45948L49.1763 12.2489H52.672ZM57.2345 16.4993V5.56528H61.0316C62.187 5.56528 63.1513 5.81168 63.9246 6.30448C64.6984 6.787 65.2758 7.44408 65.6574 8.27568C66.0491 9.097 66.245 10.0108 66.245 11.0169C66.245 12.1257 66.0292 13.0908 65.5971 13.9121C65.1752 14.7334 64.5725 15.37 63.789 15.8217C63.0055 16.2734 62.0863 16.4993 61.0316 16.4993H57.2345ZM64.5273 11.0169C64.5273 10.2469 64.3868 9.56928 64.1054 8.98408C63.8342 8.3886 63.4376 7.9266 62.915 7.59808C62.4027 7.25928 61.7753 7.08988 61.0316 7.08988H58.9221V14.9747H61.0316C61.785 14.9747 62.4178 14.8002 62.9301 14.4511C63.4526 14.102 63.8492 13.6298 64.1205 13.0343C64.3917 12.4388 64.5273 11.7664 64.5273 11.0169ZM78.0716 8.13708C77.971 8.02417 77.8257 7.90608 77.6347 7.78288C77.4436 7.6494 77.2176 7.5262 76.9566 7.41328C76.6956 7.30037 76.4142 7.20797 76.1128 7.13608C75.8115 7.0642 75.4999 7.02828 75.1786 7.02828C74.4753 7.02828 73.9533 7.16177 73.6116 7.42868C73.2698 7.6956 73.0993 8.0652 73.0993 8.53748C73.0993 8.88657 73.1945 9.16377 73.3855 9.36908C73.5766 9.56417 73.8677 9.7284 74.2595 9.86188C74.6512 9.99537 75.1436 10.1391 75.7361 10.2931C76.4594 10.4676 77.0874 10.6781 77.6196 10.9245C78.1518 11.1606 78.5586 11.4789 78.8401 11.8793C79.1215 12.2797 79.262 12.8084 79.262 13.4655C79.262 14.0199 79.1614 14.4973 78.9606 14.8977C78.7599 15.2981 78.4785 15.6266 78.1168 15.8833C77.7552 16.1297 77.3382 16.3145 76.8662 16.4377C76.3943 16.5506 75.8868 16.6071 75.3444 16.6071C74.8121 16.6071 74.2794 16.5506 73.7472 16.4377C73.2247 16.3248 72.7226 16.1605 72.2404 15.9449C71.7685 15.719 71.3315 15.447 70.9295 15.1287L71.698 13.6503C71.8287 13.7838 72.0144 13.9326 72.2555 14.0969C72.5068 14.2509 72.7931 14.3998 73.1143 14.5435C73.4458 14.6872 73.8026 14.8104 74.1841 14.9131C74.5759 15.0055 74.9725 15.0517 75.3745 15.0517C76.0477 15.0517 76.56 14.9336 76.9114 14.6975C77.273 14.4511 77.4538 14.102 77.4538 13.6503C77.4538 13.2807 77.3382 12.9881 77.1073 12.7725C76.8764 12.5466 76.5396 12.3567 76.0978 12.2027C75.6559 12.0487 75.1286 11.8947 74.5156 11.7407C73.8123 11.5456 73.2246 11.3352 72.7527 11.1093C72.2808 10.8732 71.924 10.5754 71.6829 10.2161C71.452 9.84648 71.3363 9.37937 71.3363 8.81468C71.3363 8.096 71.5069 7.49028 71.8486 6.99748C72.1904 6.4944 72.6521 6.11968 73.2349 5.87328C73.8274 5.6166 74.4903 5.48828 75.2238 5.48828C75.706 5.48828 76.1629 5.54477 76.595 5.65768C77.0271 5.76037 77.4286 5.90408 77.8004 6.08888C78.182 6.27368 78.5285 6.48417 78.8401 6.72028L78.0716 8.13708ZM88.8047 7.08988H85.2487V16.4993H83.5461V7.08988H79.975V5.56528H88.8047V7.08988ZM94.6995 16.5763C93.846 16.5763 93.1228 16.4274 92.5297 16.1297C91.9475 15.832 91.475 15.4264 91.1134 14.9131C90.7619 14.3998 90.5009 13.8146 90.3298 13.1575C90.1695 12.5004 90.0887 11.8177 90.0887 11.1093V5.56528H91.7763V11.1093C91.7763 11.6124 91.8269 12.1 91.927 12.5723C92.0276 13.0343 92.1885 13.4501 92.4092 13.8197C92.6304 14.1893 92.9269 14.4819 93.2982 14.6975C93.6803 14.9131 94.1474 15.0209 94.6995 15.0209C95.2624 15.0209 95.7295 14.9131 96.1008 14.6975C96.4829 14.4716 96.7788 14.1739 96.9898 13.8043C97.211 13.4244 97.3719 13.0035 97.472 12.5415C97.5726 12.0795 97.6226 11.6021 97.6226 11.1093V5.56528H99.3253V11.1093C99.3253 11.8588 99.2349 12.5672 99.0541 13.2345C98.8835 13.8916 98.6123 14.4716 98.2404 14.9747C97.8788 15.4675 97.4068 15.8576 96.824 16.1451C96.2418 16.4326 95.5336 16.5763 94.6995 16.5763ZM101.57 16.4993V5.56528H105.367C106.522 5.56528 107.487 5.81168 108.26 6.30448C109.033 6.787 109.611 7.44408 109.993 8.27568C110.385 9.097 110.58 10.0108 110.58 11.0169C110.58 12.1257 110.365 13.0908 109.932 13.9121C109.511 14.7334 108.908 15.37 108.124 15.8217C107.341 16.2734 106.422 16.4993 105.367 16.4993H101.57ZM108.863 11.0169C108.863 10.2469 108.722 9.56928 108.441 8.98408C108.17 8.3886 107.773 7.9266 107.25 7.59808C106.738 7.25928 106.11 7.08988 105.367 7.08988H103.257V14.9747H105.367C106.12 14.9747 106.753 14.8002 107.265 14.4511C107.788 14.102 108.185 13.6298 108.456 13.0343C108.727 12.4388 108.863 11.7664 108.863 11.0169ZM112.356 16.4993V5.56528H114.043V16.4993H112.356ZM120.906 16.5763C120.132 16.5763 119.434 16.4223 118.812 16.1143C118.189 15.8063 117.652 15.3905 117.199 14.8669C116.747 14.333 116.396 13.7376 116.145 13.0805C115.904 12.4132 115.783 11.7304 115.783 11.0323C115.783 10.3034 115.913 9.61037 116.175 8.95328C116.436 8.28597 116.797 7.6956 117.26 7.18228C117.721 6.65868 118.264 6.248 118.887 5.95028C119.52 5.64228 120.203 5.48828 120.936 5.48828C121.699 5.48828 122.392 5.6474 123.016 5.96568C123.648 6.28397 124.186 6.71 124.628 7.24388C125.08 7.77777 125.426 8.3732 125.668 9.03028C125.918 9.68737 126.044 10.3598 126.044 11.0477C126.044 11.7766 125.914 12.4748 125.653 13.1421C125.401 13.7992 125.044 14.3895 124.583 14.9131C124.12 15.4264 123.573 15.832 122.94 16.1297C122.317 16.4274 121.639 16.5763 120.906 16.5763ZM117.501 11.0323C117.501 11.5456 117.581 12.0436 117.742 12.5261C117.902 13.0086 118.128 13.4398 118.42 13.8197C118.721 14.1893 119.083 14.4819 119.505 14.6975C119.927 14.9131 120.399 15.0209 120.921 15.0209C121.464 15.0209 121.946 14.908 122.368 14.6821C122.79 14.4562 123.141 14.1534 123.422 13.7735C123.714 13.3834 123.935 12.9522 124.085 12.4799C124.236 11.9974 124.311 11.5148 124.311 11.0323C124.311 10.519 124.231 10.0262 124.07 9.55388C123.92 9.07137 123.694 8.64528 123.392 8.27568C123.091 7.8958 122.729 7.59808 122.307 7.38248C121.895 7.16688 121.434 7.05908 120.921 7.05908C120.379 7.05908 119.897 7.172 119.475 7.39788C119.053 7.62377 118.696 7.9266 118.405 8.30648C118.113 8.68637 117.887 9.1124 117.727 9.58468C117.576 10.057 117.501 10.5395 117.501 11.0323Z" fill="#242527"/>
</g>
<defs>
<clipPath id="clip0_2001_421">
<rect width="127" height="22" fill="white"/>
</clipPath>
</defs>
</svg>
